<?xml version="1.0" encoding="UTF-8"?>
<svg xmlns="http://www.w3.org/2000/svg" id="Layer_1" data-name="Layer 1" viewBox="0 0 24 24" width="512" height="512"><path d="M12,0A12,12,0,1,0,24,12,12.013,12.013,0,0,0,12,0Zm0,21a9,9,0,1,1,9-9A9.01,9.01,0,0,1,12,21ZM9.625,12.935,6.813,16.684A6.963,6.963,0,0,1,5,12a7.091,7.091,0,0,1,.063-.891Zm.875-2.882L6.078,8.284A7.016,7.016,0,0,1,10.5,5.166Zm7.422-1.768L13.5,10.053V5.166A7.014,7.014,0,0,1,17.922,8.285ZM19,12a6.963,6.963,0,0,1-1.813,4.684l-2.812-3.75,4.562-1.825A7.091,7.091,0,0,1,19,12Zm-7,2.769,2.75,3.667a6.986,6.986,0,0,1-5.5,0Z"/></svg>
