<?xml version="1.0" encoding="UTF-8"?>
<svg xmlns="http://www.w3.org/2000/svg" id="Layer_1" data-name="Layer 1" viewBox="0 0 24 24" width="512" height="512"><path d="M3.5,21H24v3H3.5c-1.93,0-3.5-1.57-3.5-3.5V0H3V20.5c0,.276,.224,.5,.5,.5ZM24,8.05v10.95H5V8.05l3.025-3.024c1.321-1.322,3.627-1.322,4.95,0l2.525,2.525,1.525-1.525c1.321-1.322,3.627-1.322,4.95,0l2.025,2.024Zm-3,1.243l-1.146-1.146c-.127-.128-.276-.147-.354-.147s-.226,.019-.353,.146l-3.647,3.646-4.646-4.646c-.127-.127-.276-.146-.354-.146s-.226,.019-.353,.146l-2.147,2.146v6.707h13v-6.707Z"/></svg>
