<?xml version="1.0" encoding="UTF-8"?>
<svg xmlns="http://www.w3.org/2000/svg" id="Layer_1" data-name="Layer 1" viewBox="0 0 24 24" width="512" height="512"><path d="M4.5,12H6.034l-.248.692A13.482,13.482,0,0,0,5.01,17H2V15H0V10.233A11.508,11.508,0,0,1,.67,6.365L2.113,2.323A3.5,3.5,0,0,1,5.409,0h6.182a3.5,3.5,0,0,1,3.3,2.323L15.843,5H12.657l-.6-1.668A.5.5,0,0,0,11.59,3H5.41a.5.5,0,0,0-.472.332L3.985,6H9.253A5.5,5.5,0,0,0,7.23,8.65L7.105,9H4.5a1.5,1.5,0,0,0,0,3ZM24,17.232V22H22v2H18V22H13v2H9V22H7V17.232a11.482,11.482,0,0,1,.67-3.867L9.113,9.323A3.508,3.508,0,0,1,12.41,7h6.18a3.508,3.508,0,0,1,3.3,2.323l1.443,4.041A11.492,11.492,0,0,1,24,17.232ZM13,17.5A1.5,1.5,0,1,0,11.5,19,1.5,1.5,0,0,0,13,17.5ZM20.015,13l-.953-2.668A.5.5,0,0,0,18.59,10H12.41a.5.5,0,0,0-.472.332L10.985,13ZM21,17.5A1.5,1.5,0,1,0,19.5,19,1.5,1.5,0,0,0,21,17.5Z"/></svg>
