<?xml version="1.0" encoding="UTF-8"?>
<svg xmlns="http://www.w3.org/2000/svg" id="Layer_1" data-name="Layer 1" viewBox="0 0 24 24" width="512" height="512"><path d="M24,17.95a10.428,10.428,0,0,0-.941-4.346L21.9,11.052A3.505,3.505,0,0,0,18.712,9H14.288A3.505,3.505,0,0,0,11.1,11.052L9.941,13.6A10.428,10.428,0,0,0,9,17.95V22h2v2h4V22h3v2h4V22h2ZM13.833,12.292A.5.5,0,0,1,14.288,12h4.424a.5.5,0,0,1,.455.293l1.161,2.553A7.5,7.5,0,0,1,20.743,16H12.257a7.5,7.5,0,0,1,.415-1.154ZM5,11H8.928L8.12,12.777A12.6,12.6,0,0,0,7.64,14H5v3H7v5H4V20H2V13a2,2,0,0,1-2-2V9H2V4.684A3.51,3.51,0,0,1,3.975,1.532,15.294,15.294,0,0,1,10.5,0a15.286,15.286,0,0,1,6.524,1.532A3.509,3.509,0,0,1,19,4.684V7H16V6H12V7.5a5.5,5.5,0,0,0-2.719,2.723L9,10.842V6H5Z"/></svg>
