<?xml version="1.0" encoding="UTF-8"?>
<svg xmlns="http://www.w3.org/2000/svg" id="Layer_1" data-name="Layer 1" viewBox="0 0 24 24" width="512" height="512"><path d="M20.5,2H3.5C1.57,2,0,3.57,0,5.5v2c0,1.93,1.57,3.5,3.5,3.5H20.5c1.93,0,3.5-1.57,3.5-3.5v-2c0-1.93-1.57-3.5-3.5-3.5ZM3,7.5v-2c0-.275,.225-.5,.5-.5H14v3H3.5c-.275,0-.5-.225-.5-.5Zm18,0c0,.275-.225,.5-.5,.5h-3.5v-3h3.5c.275,0,.5,.225,.5,.5v2Zm-.5,5.5H3.5c-1.93,0-3.5,1.57-3.5,3.5v2c0,1.93,1.57,3.5,3.5,3.5H20.5c1.93,0,3.5-1.57,3.5-3.5v-2c0-1.93-1.57-3.5-3.5-3.5ZM3,18.5v-2c0-.275,.225-.5,.5-.5h4.5v3H3.5c-.275,0-.5-.225-.5-.5Zm18,0c0,.275-.225,.5-.5,.5H11v-3h9.5c.275,0,.5,.225,.5,.5v2Z"/></svg>
