<?xml version="1.0" encoding="UTF-8"?>
<svg xmlns="http://www.w3.org/2000/svg" id="Layer_1" data-name="Layer 1" viewBox="0 0 24 24" width="512" height="512"><path d="M22.072,8.597L13.458,.03,4.831,1.01l.338,2.98,7.195-.816,7.59,7.548c.055,.054,.055,.176-.037,.27l-1.183,1.27-7.552-7.505L1.679,6.012,.939,15.266l7.855,7.807c.598,.598,1.393,.927,2.237,.927s1.641-.329,2.255-.944l5.788-5.981c.475-.475,.779-1.075,.885-1.727l2.115-2.273c.597-.596,.925-1.391,.925-2.237s-.328-1.641-.928-2.24Zm-5.136,6.373l-5.789,5.982c-.054,.053-.176,.054-.233-.004l-6.873-6.83,.435-5.451,5.639-.745,6.84,6.798c.055,.054,.055,.176-.018,.249Zm-7.937-3.47c0,.828-.672,1.5-1.5,1.5s-1.5-.672-1.5-1.5,.672-1.5,1.5-1.5,1.5,.672,1.5,1.5Z"/></svg>
