<?xml version="1.0" encoding="UTF-8"?>
<svg xmlns="http://www.w3.org/2000/svg" id="Layer_1" data-name="Layer 1" viewBox="0 0 24 24" width="512" height="512"><path d="M3,22.5c0,.828-.672,1.5-1.5,1.5s-1.5-.672-1.5-1.5,.672-1.5,1.5-1.5,1.5,.672,1.5,1.5Zm5.5-8.5c-.828,0-1.5,.672-1.5,1.5s.672,1.5,1.5,1.5,1.5-.672,1.5-1.5-.672-1.5-1.5-1.5Zm-7.061,3.561l5,5,2.121-2.121L3.561,15.439l-2.121,2.121ZM19.099,.125l-1.197,2.75c1.438,.626,2.577,1.762,3.209,3.198l2.746-1.207c-.936-2.13-2.625-3.813-4.758-4.741Zm-3.862,12.874c.492-.551,.763-1.261,.763-1.999,0-1.654-1.346-3-3-3s-3,1.346-3,3h3l2.237,1.999ZM12.882,3.001c-4.42,.064-7.882,3.578-7.882,7.999h3c0-2.764,2.164-4.959,4.925-4.999,1.341-.059,2.624,.491,3.584,1.438s1.49,2.212,1.49,3.561c0,1.001-.296,1.965-.856,2.791-.77,1.134-1.144,2.347-1.144,3.709,0,2.298-2.012,3.5-4,3.5v3c3.991,0,7-2.794,7-6.5,0-.763,.193-1.387,.625-2.024,.899-1.324,1.375-2.872,1.375-4.476,0-2.158-.847-4.182-2.384-5.697s-3.593-2.302-5.734-2.302Z"/></svg>
