<?xml version="1.0" encoding="UTF-8"?>
<svg xmlns="http://www.w3.org/2000/svg" id="Layer_1" data-name="Layer 1" viewBox="0 0 24 24" width="512" height="512"><path d="M10.361,13.614l-1.056.638A5.013,5.013,0,0,0,7.5,13.23V12h-3v1.23A5.013,5.013,0,0,0,2.7,14.252l-1.056-.638L.088,16.183l1.053.635a5.025,5.025,0,0,0,0,2.364l-1.053.635,1.551,2.569L2.7,21.748A5.013,5.013,0,0,0,4.5,22.77V24h3V22.77a5.013,5.013,0,0,0,1.8-1.022l1.056.638,1.551-2.569-1.053-.635a5.025,5.025,0,0,0,0-2.364l1.053-.635ZM8,18a2,2,0,1,1-2-2A2,2,0,0,1,8,18Zm14.361-4.386-1.056.638a5.013,5.013,0,0,0-1.8-1.022V12h-3v1.23a5.013,5.013,0,0,0-1.8,1.022l-1.056-.638-1.551,2.569,1.053.635a5.025,5.025,0,0,0,0,2.364l-1.053.635,1.551,2.569,1.056-.638a5.013,5.013,0,0,0,1.8,1.022V24h3V22.77a5.013,5.013,0,0,0,1.8-1.022l1.056.638,1.551-2.569-1.053-.635a5.025,5.025,0,0,0,0-2.364l1.053-.635ZM20,18a2,2,0,1,1-2-2A2,2,0,0,1,20,18ZM21.319,7.1,16.7,1.32A3.48,3.48,0,0,0,13.959,0H9V7H0v5.721a8.007,8.007,0,0,1,3-2.134V10H20.5a.5.5,0,0,1,.5.5v.087a8.007,8.007,0,0,1,3,2.134V10.5A3.506,3.506,0,0,0,21.319,7.1ZM12,7V3h1.959a.5.5,0,0,1,.393.191L17.4,7Z"/></svg>
