<?xml version="1.0" encoding="UTF-8"?>
<svg xmlns="http://www.w3.org/2000/svg" id="Layer_1" data-name="Layer 1" viewBox="0 0 24 24" width="512" height="512"><path d="M20.5,8h-.434L21.232,.017l-1.745-.017c-1.227,0-2.168,.788-2.793,1.312-.232,.194-.74,.62-.944,.683-.204-.062-.712-.488-.944-.683-.625-.523-1.621-1.312-2.818-1.312-1.227,0-2.168,.788-2.793,1.312-.244,.205-.785,.658-.914,.689-.189-.031-.73-.484-.975-.689-.625-.523-1.566-1.312-2.793-1.312l-1.745,.017,1.166,7.983h-.434c-1.93,0-3.5,1.57-3.5,3.5v12.5H24V11.5c0-1.93-1.57-3.5-3.5-3.5Zm-12.235-3c1.213-.012,2.114-.767,2.771-1.318,.243-.204,.779-.652,.962-.683,.187,.03,.723,.479,.966,.683,.657,.552,1.559,1.307,2.771,1.318h.029c.695-.007,1.289-.258,1.792-.575l-.961,6.575h-3.886l-.727-4.729-2.965,.457,.657,4.271h-2.27l-.961-6.577c.507,.318,1.107,.57,1.821,.577Zm12.735,16H3v-2H21v2Zm0-5H3v-4.5c0-.275,.225-.5,.5-.5h.872l.438,3h14.379l.438-3h.872c.275,0,.5,.225,.5,.5v4.5Z"/></svg>
