<?xml version="1.0" encoding="UTF-8"?>
<svg xmlns="http://www.w3.org/2000/svg" id="Layer_1" data-name="Layer 1" viewBox="0 0 24 24" width="512" height="512"><path d="M21.632,0H2.369L0,8.5c0,1.069,.375,2.052,1,2.825v9.175c0,1.93,1.57,3.5,3.5,3.5h7c1.93,0,3.5-1.57,3.5-3.5V12.24c.176-.118,.343-.248,.5-.389,.797,.714,1.848,1.149,3,1.149h1c.169,0,.336-.01,.5-.028v11.028h3V11.325c.625-.773,1-1.756,1-2.825L21.632,0ZM8.5,11.851c.797,.714,1.848,1.149,3,1.149h.5v3H4v-3.028c.164,.018,.331,.028,.5,.028h1c1.152,0,2.203-.435,3-1.149Zm3,9.149H4.5c-.276,0-.5-.224-.5-.5v-1.5H12v1.5c0,.276-.224,.5-.5,.5Zm7-11c-.827,0-1.5-.673-1.5-1.5v-.5h-3v.5c0,.827-.673,1.5-1.5,1.5h-1c-.827,0-1.5-.673-1.5-1.5v-.5h-3v.5c0,.827-.673,1.5-1.5,1.5h-1c-.768,0-1.403-.58-1.49-1.325l1.621-5.675h2.369v2h3V3h4v2h3V3h2.368l1.622,5.675c-.087,.745-.723,1.325-1.49,1.325h-1Z"/></svg>
