<?xml version="1.0" encoding="UTF-8"?>
<svg xmlns="http://www.w3.org/2000/svg" id="Layer_1" data-name="Layer 1" viewBox="0 0 24 24" width="512" height="512"><path d="M11.997,23.999c-.976,0-1.958-.139-2.915-.423-4.169-1.237-7.082-5.255-7.082-9.771v-3.473c0-2.812,1.166-5.553,3.198-7.52C7.16,.914,9.699-.095,12.359,.006c3.711,.123,7.046,2.268,8.701,5.599l-2.687,1.335c-1.164-2.341-3.506-3.85-6.114-3.936-1.832-.056-3.604,.637-4.976,1.964-1.451,1.404-2.284,3.359-2.284,5.363v3.473c0,3.198,2.029,6.033,4.935,6.895,2.263,.67,4.617,.235,6.462-1.197,1.473-1.143,2.379-2.748,2.57-4.503h-5.968v-3h9v2c.114,3.039-1.257,5.929-3.764,7.874-1.796,1.394-4.001,2.125-6.24,2.125Z"/></svg>
