<?xml version="1.0" encoding="UTF-8"?>
<svg xmlns="http://www.w3.org/2000/svg" id="Layer_1" data-name="Layer 1" viewBox="0 0 24 24" width="512" height="512"><path d="M19.79,14l-3.862,3.951,2.146,2.098,.927-.949v4.9h3V14h-2.21Zm3.21-10v1.5c0,3.706-3.009,6.5-7,6.5v-3c1.056,0,2.119-.339,2.883-1.002-2.152-.062-3.883-1.831-3.883-3.998,0-2.206,1.794-4,4-4s4,1.794,4,4Zm-4,1.5c.827,0,1.5-.672,1.5-1.5s-.673-1.5-1.5-1.5-1.5,.672-1.5,1.5,.673,1.5,1.5,1.5Zm-5.982,13.018l-4.75,4.75c-.487,.487-1.127,.731-1.768,.731s-1.28-.244-1.768-.731L-.018,18.518l2.121-2.121,2.896,2.896V0h3V19.293l2.896-2.896,2.121,2.121Z"/></svg>
