<?xml version="1.0" encoding="UTF-8"?>
<svg xmlns="http://www.w3.org/2000/svg" id="Layer_1" data-name="Layer 1" viewBox="0 0 24 24" width="512" height="512"><path d="M17.172,9.991a.492.492,0,0,1-.377-.082l-.482-.685-.167-.2A3.477,3.477,0,0,0,13.672,8H12V6h3V3H6V6H9V8H5.755L3.513,7.215A2.5,2.5,0,0,0,0,9.5v3.146a3.48,3.48,0,0,0,1.935,3.131L4,16.544V21H15.194L24,10.629V7.3ZM3.229,13.067A.5.5,0,0,1,3,12.647V10.214l1,.35v2.787ZM13.806,18H7V11h6.672a.5.5,0,0,1,.287.091l.481.685.167.2a3.5,3.5,0,0,0,3.436.89l.175-.06Zm9.608-.4a2,2,0,1,1-2.828,0L22,16Z"/></svg>
