<?xml version="1.0" encoding="UTF-8"?>
<svg xmlns="http://www.w3.org/2000/svg" id="Layer_1" data-name="Layer 1" viewBox="0 0 24 24" width="512" height="512"><path d="M24.007,8.906l-2.88-2.719c-.666-.756-1.617-1.187-2.627-1.187h-6.5l-2-1.5V0c-1.318,0-2.436,.85-2.839,2.031-.163-.02-.327-.031-.491-.031-.276,0-.548,.029-.813,.083-.387-1.208-1.52-2.083-2.857-2.083V4.164l-1.933,2.331c-1.438,1.498-1.42,3.887,.055,5.362,1.002,1.002,2.566,1.436,4.284,.821l.594,2.97v7.352h6v-4h4v4h6V11.032l2.007-2.126Zm-18.264,.299c-.638,.374-1.501,.748-1.759,.77-.229,0-.543-.042-.741-.239-.324-.324-.324-.852,0-1.176l2.664-3.203c.325-.392,.95-.465,1.357-.16l3.736,2.802h7.5c.205,0,.33,.114,.387,.182,.052,.063,.113,.169,.113,.318v6.5H8.902l-1.343-6.856-1.816,1.062Zm9.257,2.295c0-.828,.672-1.5,1.5-1.5s1.5,.672,1.5,1.5-.672,1.5-1.5,1.5-1.5-.672-1.5-1.5Zm-5,0c0-.828,.672-1.5,1.5-1.5s1.5,.672,1.5,1.5-.672,1.5-1.5,1.5-1.5-.672-1.5-1.5Z"/></svg>
