<?xml version="1.0" encoding="UTF-8"?>
<svg xmlns="http://www.w3.org/2000/svg" id="Layer_1" data-name="Layer 1" viewBox="0 0 24 24" width="512" height="512"><path d="M6.5,5c.828,0,1.5,.672,1.5,1.5s-.672,1.5-1.5,1.5-1.5-.672-1.5-1.5,.672-1.5,1.5-1.5Zm5,3c.828,0,1.5-.672,1.5-1.5s-.672-1.5-1.5-1.5-1.5,.672-1.5,1.5,.672,1.5,1.5,1.5ZM20.5,0H3.5C1.57,0,0,1.57,0,3.5V24H8.261c-.687-.831-1.133-1.867-1.236-3H3V3.5c0-.276,.224-.5,.5-.5H20.5c.276,0,.5,.224,.5,.5V12.106c.417,.429,.783,.913,1.084,1.447,.725,.314,1.363,.764,1.916,1.297V3.5c0-1.93-1.57-3.5-3.5-3.5Zm.141,15.164c-.733-1.851-2.53-3.164-4.641-3.164-2.761,0-5,2.239-5,5,0,.114,.026,.22,.033,.332-1.198,.556-2.033,1.761-2.033,3.168,0,1.933,1.567,3.5,3.5,3.5h7c2.485,0,4.5-2.015,4.5-4.5,0-2.088-1.43-3.828-3.359-4.336Z"/></svg>
