<?xml version="1.0" encoding="UTF-8"?>
<svg xmlns="http://www.w3.org/2000/svg" id="Layer_1" data-name="Layer 1" viewBox="0 0 24 24" width="512" height="512"><path d="M22.615,8.981l-1.615-1.546V3.5c0-1.93-1.57-3.5-3.5-3.5H6.5c-1.93,0-3.5,1.57-3.5,3.5v3.938l-1.611,1.543C.507,9.826,.001,11.011,.001,12.231v11.769H24V12.231c0-1.221-.505-2.406-1.385-3.25Zm-14.615,2.019h3v.5c0,.276,.224,.5,.5,.5h1c.276,0,.5-.224,.5-.5,0-.294-.177-.555-.45-.665l-2.215-.886c-1.419-.567-2.335-1.922-2.335-3.45,0-1.58,1.059-2.903,2.5-3.337v-1.163h3v1.163c1.441,.434,2.5,1.757,2.5,3.337v.5h-3v-.5c0-.276-.224-.5-.5-.5h-1c-.276,0-.5,.224-.5,.5,0,.294,.177,.555,.45,.665l2.215,.886c1.419,.567,2.335,1.922,2.335,3.45,0,1.58-1.059,2.903-2.5,3.337v1.163h-3v-1.163c-1.441-.434-2.5-1.757-2.5-3.337v-.5Zm13,10H3V12.28l5.111,5.11c1.072,1.072,2.48,1.607,3.889,1.607s2.817-.536,3.889-1.608l5.111-5.111v8.722Z"/></svg>
