<?xml version="1.0" encoding="UTF-8"?>
<svg xmlns="http://www.w3.org/2000/svg" id="Layer_1" data-name="Layer 1" viewBox="0 0 24 24" width="512" height="512"><path d="M12.063,7.442c-.525,0-1.045,.092-1.544,.272l-.471,.171c.756-1.416,2.234-2.386,3.951-2.386,2.485,0,4.5,2.015,4.5,4.5,0,1.718-.97,3.196-2.387,3.952l.17-.468c.604-1.661,.203-3.47-1.046-4.719-.852-.853-1.979-1.322-3.173-1.322Zm2.972,9.472l-1.12,3.081c.029,0,.056,.004,.085,.004,5.514,0,10-4.486,10-10S19.514,0,14,0,4,4.486,4,10c0,.028,.004,.056,.004,.084l3.081-1.12c.504-3.369,3.408-5.964,6.915-5.964,3.86,0,7,3.141,7,7,0,3.507-2.595,6.412-5.965,6.915ZM0,13.669l11.2-4.073c.923-.334,1.928-.112,2.623,.583,.694,.694,.917,1.698,.581,2.621l-4.073,11.2-4.105-4.105-4.105,4.105L0,21.879l4.105-4.105L0,13.669Zm11.218-.887l-5.765,2.096,3.669,3.669,2.096-5.765Z"/></svg>
