<?xml version="1.0" encoding="UTF-8"?>
<svg xmlns="http://www.w3.org/2000/svg" id="Layer_1" data-name="Layer 1" viewBox="0 0 24 24" width="512" height="512"><path d="M22.971,21.85l-2.532-2.532c.988-1.564,1.561-3.42,1.561-5.409v-3.818C22,4.526,17.514,0,12,0S2,4.526,2,10.091v3.818c0,5.564,4.486,10.091,10,10.091,2.467,0,4.727-.906,6.473-2.406l2.377,2.377,2.121-2.121Zm-10.971-.85c-3.86,0-7-3.181-7-7.091v-3.818c0-3.91,3.14-7.091,7-7.091s7,3.181,7,7.091v3.818c0,1.155-.274,2.246-.759,3.21l-2.065-2.065-2.121,2.121,2.289,2.289c-1.194,.96-2.704,1.535-4.344,1.535Z"/></svg>
