<?xml version="1.0" encoding="UTF-8"?>
<svg xmlns="http://www.w3.org/2000/svg" id="Layer_1" data-name="Layer 1" viewBox="0 0 24 24" width="512" height="512"><path d="M18.483,11h3.517v-3h-1.248c.162-.519,.248-1.065,.248-1.624,0-2.029-1.114-3.892-2.907-4.858-1.868-1.007-3.911-1.518-6.07-1.518C6.69,0,3.461,3.168,3.326,3.303l2.115,2.127c.024-.024,2.533-2.43,6.581-2.43,1.657,0,3.221,.39,4.646,1.158,.821,.442,1.331,1.293,1.331,2.218,0,.605-.222,1.178-.6,1.624H2v3H10.414l-3.778,1.442c-.385,.147-.748,.335-1.085,.558H2v3h1.273c-.178,.549-.273,1.13-.273,1.724,0,2.144,1.224,4.128,3.119,5.058,1.652,.809,3.639,1.219,5.903,1.219,5.214,0,9.318-3.034,9.491-3.163l-1.798-2.402c-.034,.025-3.504,2.565-7.693,2.565-1.804,0-3.347-.308-4.584-.913-.874-.429-1.438-1.356-1.438-2.363,0-.643,.237-1.252,.64-1.724h15.36v-3H13.587l3.87-1.478c.364-.139,.707-.315,1.026-.522Z"/></svg>
