<?xml version="1.0" encoding="UTF-8"?>
<svg xmlns="http://www.w3.org/2000/svg" id="Layer_1" data-name="Layer 1" viewBox="0 0 24 24" width="512" height="512"><path d="M3.109,11H-.081l2.8-3.5L-.081,4H4V-.032L7.5,2.723,11-.081V2.191a5.927,5.927,0,0,0-1.164.839L6.694,5.936A15.088,15.088,0,0,0,3.109,11Zm20.036,8.387-1.358,3.477-1.863-.727L19.2,24l-4.657-1.818.727-1.864-4.9-1.94-.728,1.863L4.982,18.423l.727-1.863-1.863-.728L5.2,12.355A12.574,12.574,0,0,1,8.339,7.744l3.134-2.913a3.518,3.518,0,0,1,3.655-.7l6.288,2.483a3.52,3.52,0,0,1,2.216,2.989l.331,4.266A12.578,12.578,0,0,1,23.145,19.387ZM10.257,11.846h0a1.521,1.521,0,0,0-1.971.865h0a1.523,1.523,0,0,0,.864,1.972h0a1.524,1.524,0,0,0,1.972-.865h0A1.522,1.522,0,0,0,10.257,11.846Zm10.618,1-.234-3.009a.5.5,0,0,0-.317-.428L14.037,6.929a.5.5,0,0,0-.522.1L11.306,9.081Zm-1.1,2.741h0a1.523,1.523,0,0,0-1.972.864h0a1.524,1.524,0,0,0,.865,1.972h0a1.523,1.523,0,0,0,1.972-.864h0A1.521,1.521,0,0,0,19.772,15.589Z"/></svg>
