<?xml version="1.0" encoding="UTF-8"?>
<svg xmlns="http://www.w3.org/2000/svg" id="Layer_1" data-name="Layer 1" viewBox="0 0 24 24" width="512" height="512"><path d="M24,11V4.5c0-1.93-1.57-3.5-3.5-3.5h-2.546l-1.5-1h-2.954c-1.93,0-3.5,1.57-3.5,3.5v1.5H3V0H0V17.5c0,1.93,1.57,3.5,3.5,3.5h6.5v3h14v-6.5c0-1.93-1.57-3.5-3.5-3.5h-2.546l-1.5-1h-2.954c-1.93,0-3.5,1.57-3.5,3.5v1.5H3.5c-.276,0-.5-.225-.5-.5V8h7v3h14ZM13,3.5c0-.275,.224-.5,.5-.5h2.046l1.5,1h3.454c.276,0,.5,.225,.5,.5v3.5H13V3.5Zm0,13c0-.275,.224-.5,.5-.5h2.046l1.5,1h3.454c.276,0,.5,.225,.5,.5v3.5H13v-4.5Z"/></svg>
