<?xml version="1.0" encoding="UTF-8"?>
<svg xmlns="http://www.w3.org/2000/svg" id="Layer_1" data-name="Layer 1" viewBox="0 0 24 24" width="512" height="512"><path d="M23.997-.007l-2.113,.946c-.024,.011-2.396,1.061-4.883,1.061-1.21,0-2.79-.476-4.317-.937-1.735-.522-3.53-1.063-5.183-1.063C4.249,0,.855,2.067,.712,2.155L0,2.595V24H3v-7.629c.981-.521,2.84-1.371,4.5-1.371,1.21,0,2.79,.476,4.317,.937,1.735,.522,3.53,1.063,5.183,1.063,3.203,0,6.086-1.523,6.207-1.589l.792-.424-.002-14.994Zm-6.997,5.007c1.485,0,2.903-.282,3.999-.587v2.835c-.916,.32-2.441,.752-3.999,.752-1.21,0-2.79-.476-4.317-.937-.557-.168-1.12-.337-1.683-.49V3.692c.273,.08,.546,.162,.817,.244,1.735,.522,3.53,1.063,5.183,1.063Zm0,9c-1.21,0-2.79-.476-4.317-.937-1.735-.522-3.53-1.063-5.183-1.063-1.601,0-3.234,.516-4.5,1.053v-2.682c.982-.52,2.84-1.371,4.5-1.371,1.21,0,2.79,.476,4.317,.937,1.735,.522,3.53,1.063,5.183,1.063,1.485,0,2.901-.29,3.999-.604v2.729c-.894,.364-2.426,.875-3.999,.875Z"/></svg>
