<?xml version="1.0" encoding="UTF-8"?>
<svg xmlns="http://www.w3.org/2000/svg" id="Layer_1" data-name="Layer 1" viewBox="0 0 24 24" width="512" height="512"><path d="M24,13.5c0-1.832-1.415-3.339-3.209-3.488l-4.541-6.514c-.654-.938-1.728-1.499-2.871-1.499H6.881c-1.446,0-2.761,.908-3.272,2.258L1.031,11.042c-.66,.654-1.031,1.528-1.031,2.458v5.5H3.05c-.033,.162-.05,.329-.05,.5,0,1.381,1.119,2.5,2.5,2.5s2.5-1.119,2.5-2.5c0-.171-.017-.338-.05-.5h8.1c-.033,.162-.05,.329-.05,.5,0,1.381,1.119,2.5,2.5,2.5s2.5-1.119,2.5-2.5c0-.171-.017-.338-.05-.5h3.05v-5.5Zm-3,2.5H3v-2.5c0-.197,.131-.326,.209-.385l.342-.26,2.863-7.532c.073-.193,.261-.322,.467-.322h6.499c.163,0,.316,.08,.41,.214l5.428,7.786h1.283c.276,0,.5,.224,.5,.5v2.5Zm-7.251-5.891c.367,.684,.329,1.511-.101,2.157l-2.467,3.158-2.362-1.85,1.233-1.575h-.937c-.667,0-1.301-.32-1.699-.855-.397-.535-.519-1.235-.325-1.873l2.131-3.558,2.555,1.572-1.054,1.714h1.172c.776,0,1.487,.425,1.854,1.109Z"/></svg>
