<?xml version="1.0" encoding="UTF-8"?>
<svg xmlns="http://www.w3.org/2000/svg" id="Layer_1" data-name="Layer 1" viewBox="0 0 24 24" width="512" height="512"><path d="M4.5,23A4.5,4.5,0,1,1,9,18.5,4.505,4.505,0,0,1,4.5,23Zm0-6A1.5,1.5,0,1,0,6,18.5,1.5,1.5,0,0,0,4.5,17Zm15,6A4.5,4.5,0,1,1,24,18.5,4.505,4.505,0,0,1,19.5,23Zm0-6A1.5,1.5,0,1,0,21,18.5,1.5,1.5,0,0,0,19.5,17Zm-6-2.78-3.362-2.357A.489.489,0,0,1,10,11.526a.5.5,0,0,1,.163-.377L12.046,9.1a.5.5,0,0,1,.657.046L15.934,12H20V9H17.066L14.8,7a3.487,3.487,0,0,0-4.809-.085L8.084,8.986a3.5,3.5,0,0,0,.135,5.187L10.5,15.78V20h3ZM16.5,1A2.5,2.5,0,1,0,19,3.5,2.5,2.5,0,0,0,16.5,1Z"/></svg>
