<?xml version="1.0" encoding="UTF-8"?>
<svg xmlns="http://www.w3.org/2000/svg" id="Layer_1" data-name="Layer 1" viewBox="0 0 24 24" width="512" height="512"><path d="M8,14a4,4,0,0,1,2.5-3.708V0H17V3H13.5V5H17V8H13.5v2.292A4,4,0,1,1,8,14Zm14.592,0H19.408A1.5,1.5,0,0,1,18,15c-.031,0-.058-.012-.088-.014a5.975,5.975,0,0,1-1.252,2.786A4.345,4.345,0,0,0,18,18a4.468,4.468,0,0,0,3-1.17A4.468,4.468,0,0,0,24,18V15A1.5,1.5,0,0,1,22.592,14ZM6,18a4.345,4.345,0,0,0,1.34-.228,5.975,5.975,0,0,1-1.252-2.786c-.03,0-.057.014-.088.014a1.5,1.5,0,0,1-1.408-1H1.408A1.5,1.5,0,0,1,0,15v3a4.468,4.468,0,0,0,3-1.17A4.468,4.468,0,0,0,6,18Zm16.592,2H19.408a1.491,1.491,0,0,1-2.816,0H13.408a1.491,1.491,0,0,1-2.816,0H7.408a1.491,1.491,0,0,1-2.816,0H1.408A1.5,1.5,0,0,1,0,21v3a4.468,4.468,0,0,0,3-1.17,4.431,4.431,0,0,0,6,0,4.431,4.431,0,0,0,6,0,4.431,4.431,0,0,0,6,0A4.468,4.468,0,0,0,24,24V21A1.5,1.5,0,0,1,22.592,20Z"/></svg>
