<?xml version="1.0" encoding="UTF-8"?>
<svg xmlns="http://www.w3.org/2000/svg" id="Layer_1" data-name="Layer 1" viewBox="0 0 24 24" width="512" height="512"><path d="M12,20.5A3.5,3.5,0,1,1,8.5,17,3.5,3.5,0,0,1,12,20.5ZM24,18v3H13.975c.015-.165.025-.331.025-.5A5.474,5.474,0,0,0,13.4,18H20V14H3v3.5a.5.5,0,0,0,.5.5h.1A5.474,5.474,0,0,0,3,20.5c0,.153.011.3.023.452A3.5,3.5,0,0,1,0,17.5V3.5A3.5,3.5,0,0,1,3.5,0h16A3.5,3.5,0,0,1,23,3.5V18Zm-4-7V3.5a.5.5,0,0,0-.5-.5H3.5a.5.5,0,0,0-.5.5V11H5V5H8v6h2V5h3v6h2V5h3v6Z"/></svg>
