<?xml version="1.0" encoding="UTF-8"?>
<svg xmlns="http://www.w3.org/2000/svg" id="Layer_1" data-name="Layer 1" viewBox="0 0 24 24" width="512" height="512"><path d="M13.887,12.337l4.425,2.337-1.4,2.652-4.49-2.371A2.021,2.021,0,0,1,12,15a2,2,0,1,1,1.887-2.663Zm3.062-4.286a7,7,0,1,0-9.9,9.9,7.064,7.064,0,0,0,.924.779L9.7,16.274a4,4,0,1,1,5.127-6.1,4.085,4.085,0,0,1,.557.694L19,12.773A6.941,6.941,0,0,0,16.949,8.051ZM24,13a12.039,12.039,0,0,1-4.966,9.714L18.64,23H5.36l-.394-.286A12,12,0,1,1,24,13Zm-3,0A9,9,0,1,0,6.354,20H17.646A9.032,9.032,0,0,0,21,13Z"/></svg>
