<?xml version="1.0" encoding="UTF-8"?>
<svg xmlns="http://www.w3.org/2000/svg" id="Layer_1" data-name="Layer 1" viewBox="0 0 24 24" width="512" height="512"><path d="M9,9h6v2.661l-1.843,2.339h1.843v3h-6v-2.571l1.914-2.429h-1.914v-3Zm10.694,10.398l2.417,2.576-2.188,2.053-2.478-2.64c-1.565,1.017-3.427,1.614-5.429,1.614s-3.863-.597-5.429-1.614l-2.478,2.64-2.188-2.053,2.417-2.576c-1.449-1.735-2.323-3.966-2.323-6.398C2.017,7.997,5.714,3.852,10.517,3.125V0h3V3.125c4.803,.728,8.5,4.872,8.5,9.875,0,2.432-.875,4.663-2.324,6.398Zm-7.677,.602c3.86,0,7-3.14,7-7s-3.141-7-7-7-7,3.14-7,7,3.14,7,7,7ZM6.071,2.586L4.474,.056C2.743,1.068,1.236,2.419,.034,4.011l2.494,1.662c.965-1.248,2.167-2.3,3.543-3.088Zm15.435,3.088l2.494-1.662c-1.202-1.593-2.709-2.943-4.439-3.955l-1.598,2.53c1.377,.788,2.578,1.84,3.543,3.088Z"/></svg>
