<?xml version="1.0" encoding="UTF-8"?>
<svg xmlns="http://www.w3.org/2000/svg" id="Layer_1" data-name="Layer 1" viewBox="0 0 24 24" width="512" height="512"><path d="M13.757.486A3.377,3.377,0,0,0,10.293.461L1,5.617V18.383l9.248,5.131a3.434,3.434,0,0,0,1.767.49,3.285,3.285,0,0,0,1.7-.465L23,18.383V5.617Zm3.056,10.778L20,9.49v6.732ZM18.806,6.72,15.294,8.676l-2.96-5.549ZM11.664,3.13,8.706,8.676,5.194,6.72ZM7.187,11.264,4,16.222V9.49ZM4.69,17H12L8,10h8l-4,7H10.5l0,3.224ZM13.5,20.225,13.5,17h5.811Z"/></svg>
