<?xml version="1.0" encoding="UTF-8"?>
<svg xmlns="http://www.w3.org/2000/svg" id="Layer_1" data-name="Layer 1" viewBox="0 0 24 24" width="512" height="512"><path d="M23,0H15V3h4.131l-4.131,4.957v3.043h8v-3h-4.131l4.131-4.957V0Zm0,17v7h-3v-2h-2v2h-3v-7c0-2.206,1.794-4,4-4s4,1.794,4,4Zm-2.667,2.5v-2.667c0-.736-.598-1.333-1.333-1.333s-1.333,.598-1.333,1.333v2.667h2.667Zm-7.316-.982l-4.75,4.75c-.487,.487-1.127,.731-1.768,.731s-1.28-.244-1.768-.731L-.018,18.518l2.121-2.121,2.896,2.896V0h3V19.293l2.896-2.896,2.121,2.121Z"/></svg>
