<?xml version="1.0" encoding="UTF-8"?>
<svg xmlns="http://www.w3.org/2000/svg" id="Layer_1" data-name="Layer 1" viewBox="0 0 24 24" width="512" height="512"><path d="M22.357,8A34.789,34.789,0,0,0,19.21,3.245a4.4,4.4,0,0,0-2.258-1.54A15.235,15.235,0,0,0,12,1a19.175,19.175,0,0,0-5.479.713A4.382,4.382,0,0,0,4.29,3.245,23.466,23.466,0,0,0,1.464,8H0V20H3v3H7V20H17v3h4V20h3V8ZM5.5,17A1.5,1.5,0,1,1,7,15.5,1.5,1.5,0,0,1,5.5,17ZM12,11a64.834,64.834,0,0,0-8.8.711A23.405,23.405,0,0,1,6.671,5.07a1.394,1.394,0,0,1,.714-.484A16.164,16.164,0,0,1,12,4a12.3,12.3,0,0,1,4.115.586,1.4,1.4,0,0,1,.714.483,27.139,27.139,0,0,1,3.956,6.64A64.92,64.92,0,0,0,12,11Zm6.5,6A1.5,1.5,0,1,1,20,15.5,1.5,1.5,0,0,1,18.5,17Z"/></svg>
