<?xml version="1.0" encoding="UTF-8"?>
<svg xmlns="http://www.w3.org/2000/svg" id="Layer_1" data-name="Layer 1" viewBox="0 0 24 24" width="512" height="512"><path d="M12,21.5A2.5,2.5,0,0,1,9.5,24h-7a2.5,2.5,0,0,1-.572-4.928L0,15H3.192l1.661,3.38,1.952-3.167L3.884,13.5A3.5,3.5,0,0,1,2.37,8.83l.1-.174,1.24-1.822A3.5,3.5,0,0,1,8.354,5.37c.67.335,4.657,2.861,5.45,3.364L12.2,11.267c-1.28-.813-2.642-1.668-3.661-2.3L6.677,11.661l2.034,1.2a2.417,2.417,0,0,1,1.173,1.435A2.475,2.475,0,0,1,9.7,16.223L7.993,19H9.5A2.5,2.5,0,0,1,12,21.5ZM9.5,5A2.5,2.5,0,1,0,7,2.5,2.5,2.5,0,0,0,9.5,5ZM20.842,17.343,24,14.111V10.405L14.529,2.829,12.655,5.172l2.482,1.985h0A3.873,3.873,0,0,1,16.5,8.936c0,1.369-.832,2.064-2.473,2.064v3c2.682,0,4.619-1.379,5.241-3.538L21,11.847v1.042l-2.3,2.358A2.511,2.511,0,0,1,16.908,16H12.143l-1.734,3h4.664l1,2H14v3h5.5A4.5,4.5,0,0,0,24,19.5V19H21v.5A1.5,1.5,0,0,1,19.5,21h-.073l-1.105-2.211A5.5,5.5,0,0,0,20.842,17.343Z"/></svg>
