<?xml version="1.0" encoding="UTF-8"?>
<svg xmlns="http://www.w3.org/2000/svg" id="Layer_1" data-name="Layer 1" viewBox="0 0 24 24" width="512" height="512"><path d="M9.459,21l4.084-2.688-1.1-1.671,4.845-3.129,1.1,1.671,4.177-2.749-1.1-1.671,1.67-1.1L21.084,6.545a12.583,12.583,0,0,0-4.027-3.856L13.385.493a3.518,3.518,0,0,0-3.72.08L3.575,4.521A3.519,3.519,0,0,0,2.03,7.906L2.6,12.148a12.567,12.567,0,0,0,1.949,5.223L6.6,20.489l1.67-1.1L9.327,21H0v3H24V21ZM18.144,7.535h0a1.522,1.522,0,0,1-.435,2.109h0A1.523,1.523,0,0,1,15.6,9.209h0A1.522,1.522,0,0,1,16.035,7.1h0A1.522,1.522,0,0,1,18.144,7.535ZM5,7.511a.5.5,0,0,1,.22-.484l6.09-3.948a.5.5,0,0,1,.532-.011l2.587,1.547L5.4,10.5Zm1.612,7.551h0a1.522,1.522,0,0,1,.435-2.108h0a1.522,1.522,0,0,1,2.109.434h0A1.523,1.523,0,0,1,8.725,15.5h0A1.523,1.523,0,0,1,6.616,15.062Z"/></svg>
