<?xml version="1.0" encoding="UTF-8"?>
<svg xmlns="http://www.w3.org/2000/svg" id="Layer_1" data-name="Layer 1" viewBox="0 0 24 24" width="512" height="512"><path d="M15,4H7C7,1.794,8.794,0,11,0s4,1.794,4,4Zm9,13h-1.584c-.672,1.656-1.884,3.038-3.416,3.926v3.074h-6v-2h-2v2H5v-3.074c-2.389-1.385-4-3.971-4-6.926,0-1.301,.313-2.531,.866-3.618-1.121-.709-1.866-1.96-1.866-3.382C0,4.794,1.794,3,4,3v3c-.551,0-1,.448-1,1,0,.466,.319,.857,.75,.969,1.406-1.225,3.243-1.969,5.25-1.969h6c.113,0,.224,.003,.336,.008,1.113-3.001,4.664-3.008,4.664-3.008V7.76c1.059,.85,1.897,1.963,2.416,3.24h1.584v6ZM4,14c0,2.757,2.243,5,5,5h6c2.757,0,5-2.243,5-5s-2.243-5-5-5h-6c-2.757,0-5,2.243-5,5Zm12.5,0c.828,0,1.5-.672,1.5-1.5s-.672-1.5-1.5-1.5-1.5,.672-1.5,1.5,.672,1.5,1.5,1.5Z"/></svg>
