<?xml version="1.0" encoding="UTF-8"?>
<svg xmlns="http://www.w3.org/2000/svg" id="Layer_1" data-name="Layer 1" viewBox="0 0 24 24" width="512" height="512"><path d="M12,1A11.994,11.994,0,0,0,4.967,22.714L5.36,23H18.64l.394-.286A11.995,11.995,0,0,0,12,1Zm5.646,19H6.354a9,9,0,1,1,11.292,0ZM13.5,11.678a2,2,0,1,1-3,0V6h3Zm-4.328,4.15a3.964,3.964,0,0,0,.529.446L7.973,18.726a7.064,7.064,0,0,1-.924-.779A7.01,7.01,0,0,1,9,6.672v3.683a4,4,0,0,0,.172,5.473ZM19,13a6.95,6.95,0,0,1-2.049,4.947,7.064,7.064,0,0,1-.924.779L14.3,16.274a4,4,0,0,0,.7-5.919V6.672A7.023,7.023,0,0,1,19,13Z"/></svg>
