<?xml version="1.0" encoding="UTF-8"?>
<svg xmlns="http://www.w3.org/2000/svg" id="Layer_1" data-name="Layer 1" viewBox="0 0 24 24" width="512" height="512"><path d="M15,15h4v3h-4v-3Zm9-1.5v10.5H0V13.5c0-1.93,1.57-3.5,3.5-3.5h1.5V3.5c0-1.93,1.57-3.5,3.5-3.5h7c1.93,0,3.5,1.57,3.5,3.5v6.5h1.5c1.93,0,3.5,1.57,3.5,3.5Zm-16-3.5h8V3.5c0-.275-.225-.5-.5-.5h-7c-.275,0-.5,.225-.5,.5v6.5ZM3,21h7.5V13H3.5c-.275,0-.5,.225-.5,.5v7.5Zm18-7.5c0-.275-.225-.5-.5-.5h-7v8h7.5v-7.5Zm-16,1.5v3h4v-3H5Zm5-7h4v-3h-4v3Z"/></svg>
