<?xml version="1.0" encoding="UTF-8"?>
<svg xmlns="http://www.w3.org/2000/svg" id="Layer_1" data-name="Layer 1" viewBox="0 0 24 24" width="512" height="512"><path d="M13.5,11.5h2.5v3h-2.5v2.5h-3v-2.5h-2.5v-3h2.5v-2.5h3v2.5Zm6.177,7.898l2.417,2.576-2.188,2.053-2.477-2.64c-1.565,1.017-3.427,1.614-5.429,1.614s-3.864-.597-5.429-1.614l-2.477,2.64-2.188-2.053,2.417-2.576c-1.449-1.735-2.323-3.966-2.323-6.398C2,7.997,5.697,3.852,10.5,3.125V0h3V3.125c4.803,.727,8.5,4.872,8.5,9.875,0,2.432-.875,4.663-2.323,6.398Zm-7.677,.602c3.86,0,7-3.14,7-7s-3.14-7-7-7-7,3.14-7,7,3.14,7,7,7ZM6.054,2.586L4.456,.056C2.726,1.068,1.219,2.419,.017,4.011l2.494,1.662c.965-1.248,2.167-2.3,3.543-3.088Zm15.435,3.088l2.494-1.662c-1.202-1.593-2.709-2.943-4.439-3.955l-1.598,2.53c1.377,.788,2.578,1.84,3.543,3.088Z"/></svg>
