<?xml version="1.0" encoding="UTF-8"?>
<svg xmlns="http://www.w3.org/2000/svg" id="Layer_1" data-name="Layer 1" viewBox="0 0 24 24" width="512" height="512"><path d="M24,5.5A4.505,4.505,0,0,0,19.5,1H4.5A4.505,4.505,0,0,0,0,5.5V15.621l4,4V20.5A2.5,2.5,0,1,0,8.95,20h7.1a2.5,2.5,0,1,0,4.9,0H24V14.562a5.506,5.506,0,0,0-.725-2.729L21.656,9H24Zm-11,4V17H5.621L3,14.379V5.5A1.5,1.5,0,0,1,4.5,4h15A1.5,1.5,0,0,1,21,5.5V6H16.5A3.5,3.5,0,0,0,13,9.5ZM16,14V9.5a.5.5,0,0,1,.5-.5h1.7l2.469,4.321a2.505,2.505,0,0,1,.266.679ZM5,7h6v4H5Z"/></svg>
