<?xml version="1.0" encoding="UTF-8"?>
<svg xmlns="http://www.w3.org/2000/svg" id="Layer_1" data-name="Layer 1" viewBox="0 0 24 24" width="512" height="512"><path d="M23.9,9H22c-.193,0-.381.013-.569.025a10.771,10.771,0,0,0-7.559-4.884,2.5,2.5,0,1,0-3.731.016A11.182,11.182,0,0,0,2.62,9.027C2.415,9.014,2.211,9,2,9H.1L2.974,21H1v3H23V21H21.026ZM12,7a7.938,7.938,0,0,1,6.3,2.825,6.344,6.344,0,0,0-1.73,1.252,6.076,6.076,0,0,0-9.149,0A6.314,6.314,0,0,0,5.752,9.85,8.016,8.016,0,0,1,12,7ZM3.983,12.34A2.792,2.792,0,0,1,6,15H9a2.935,2.935,0,0,1,3-3,2.935,2.935,0,0,1,3,3h3a2.792,2.792,0,0,1,2.017-2.66L17.941,21H6.059Z"/></svg>
