<?xml version="1.0" encoding="UTF-8"?>
<svg xmlns="http://www.w3.org/2000/svg" id="Layer_1" data-name="Layer 1" viewBox="0 0 24 24" width="512" height="512"><path d="M12,0C5.383,0,0,5.383,0,12s5.383,12,12,12,12-5.383,12-12S18.617,0,12,0Zm0,21c-4.963,0-9-4.037-9-9S7.037,3,12,3s9,4.038,9,9-4.037,9-9,9Zm4-11.5v.5h-3v-.5c0-.276-.225-.5-.5-.5h-1c-.275,0-.5,.224-.5,.5,0,.294,.177,.555,.45,.665l2.214,.886c1.419,.567,2.336,1.922,2.336,3.45,0,1.582-1.056,2.923-2.5,3.354v1.146h-3v-1.146c-1.444-.431-2.5-1.772-2.5-3.354v-.5h3v.5c0,.275,.225,.5,.5,.5h1c.275,0,.5-.225,.5-.5,0-.294-.177-.555-.45-.664l-2.214-.886c-1.419-.567-2.336-1.922-2.336-3.45,0-1.582,1.056-2.923,2.5-3.354v-1.146h3v1.146c1.444,.431,2.5,1.772,2.5,3.354Z"/></svg>
