<?xml version="1.0" encoding="UTF-8"?>
<svg xmlns="http://www.w3.org/2000/svg" id="Layer_1" data-name="Layer 1" viewBox="0 0 24 24" width="512" height="512"><path d="M20.5,3H24V0H20.5A3.5,3.5,0,0,0,17,3.5V16.36L4.1,19.944l-.723-2.876L15,13.983V7.258l-.151-.61a3.5,3.5,0,0,0-4.275-2.535L4.635,5.723a3.5,3.5,0,0,0-2.543,4.24l.536,2.16A3.507,3.507,0,0,0,.105,16.366l1.1,4.381L.1,21.055l.8,2.89,16.267-4.518A3.5,3.5,0,1,0,20.5,17a3.432,3.432,0,0,0-.5.036V3.5A.5.5,0,0,1,20.5,3ZM5.394,8.625l5.939-1.609a.519.519,0,0,1,.378.055.5.5,0,0,1,.226.3l1.013,4.046L6.006,13.245,5,9.239A.509.509,0,0,1,5.394,8.625Z"/></svg>
