<svg id="Layer_1" height="512" viewBox="0 0 24 24" width="512" xmlns="http://www.w3.org/2000/svg" data-name="Layer 1"><path d="m7.5 13a4.5 4.5 0 1 1 4.5-4.5 4.505 4.505 0 0 1 -4.5 4.5zm0-6a1.5 1.5 0 1 0 1.5 1.5 1.5 1.5 0 0 0 -1.5-1.5zm7.5 13.5a5.506 5.506 0 0 0 -5.5-5.5h-4a5.506 5.506 0 0 0 -5.5 5.5v3.5h3v-3.5a2.5 2.5 0 0 1 2.5-2.5h4a2.5 2.5 0 0 1 2.5 2.5v3.5h3zm2.5-11.5a4.5 4.5 0 1 1 4.5-4.5 4.505 4.505 0 0 1 -4.5 4.5zm0-6a1.5 1.5 0 1 0 1.5 1.5 1.5 1.5 0 0 0 -1.5-1.5zm6.5 13.5a5.506 5.506 0 0 0 -5.5-5.5h-3.5v3h3.5a2.5 2.5 0 0 1 2.5 2.5v3.5h3z"/></svg>