<?xml version="1.0" encoding="UTF-8"?>
<svg xmlns="http://www.w3.org/2000/svg" id="Layer_1" data-name="Layer 1" viewBox="0 0 24 24" width="512" height="512"><path d="M13,13h2.559l-3.159,3.583c-.48,.556-1.32,.556-1.8,0l-3.159-3.583h2.559v-4h3v4Zm11,1.295c0,4.249-3.456,7.705-7.705,7.705H5.318c-2.933,0-5.318-2.6-5.318-5.796,0-1.646,.787-3.287,2.065-4.417-.043-.349-.065-.695-.065-1.037C2,5.925,5.925,2,10.75,2c3.366,0,6.439,1.967,7.883,4.968,3.154,1.006,5.367,3.968,5.367,7.327Zm-3,0c0-2.216-1.581-4.147-3.76-4.594l-.815-.167-.29-.781c-.833-2.244-2.997-3.753-5.385-3.753-3.17,0-5.75,2.579-5.75,5.75,0,.431,.055,.881,.164,1.337l.253,1.062-.933,.566c-.888,.54-1.484,1.54-1.484,2.488,0,1.542,1.04,2.796,2.318,2.796h10.977c2.594,0,4.705-2.11,4.705-4.705Z"/></svg>
