<?xml version="1.0" encoding="UTF-8"?>
<svg xmlns="http://www.w3.org/2000/svg" id="Layer_1" data-name="Layer 1" viewBox="0 0 24 24" width="512" height="512"><path d="M12.947,9.674l-2.759,2.702c-.415,.416-.965,.624-1.517,.624-.555,0-1.112-.211-1.536-.635l-1.443-1.386,2.079-2.163,.891,.856,2.187-2.142,2.099,2.144Zm-.947,9.326h5v-3h-5v3Zm-5,0h3v-3h-3v3ZM22,2V20.5c0,1.93-1.57,3.5-3.5,3.5H5.5c-1.93,0-3.5-1.57-3.5-3.5V2H7.338c.563-1.182,1.769-2,3.162-2h3c1.394,0,2.599,.818,3.162,2h5.338Zm-3,3h-5v-1.5c0-.276-.224-.5-.5-.5h-3c-.276,0-.5,.224-.5,.5v1.5H5v15.5c0,.276,.224,.5,.5,.5h13c.276,0,.5-.224,.5-.5V5Zm-2,8v-3h-1.527l-3.063,3h4.591Z"/></svg>
