<?xml version="1.0" encoding="UTF-8"?>
<svg xmlns="http://www.w3.org/2000/svg" id="Layer_1" data-name="Layer 1" viewBox="0 0 24 24" width="512" height="512"><path d="M22,17.338V3.5c0-1.93-1.57-3.5-3.5-3.5H3.5C1.57,0,0,1.57,0,3.5V23H15.605c-.384-.751-.605-1.599-.605-2.5,0-.169,.013-.335,.028-.5H3v-2H15.606c.344-.672,.817-1.266,1.394-1.743V3h1.5c.275,0,.5,.224,.5,.5v13.838c-1.181,.563-2,1.769-2,3.162,0,1.93,1.57,3.5,3.5,3.5s3.5-1.57,3.5-3.5c0-1.393-.819-2.599-2-3.162Zm-8-7.338H3v-2H14v2ZM3,15v-2H14v2H3ZM14,5H3v-1.5c0-.276,.225-.5,.5-.5H14v2Z"/></svg>
