<?xml version="1.0" encoding="UTF-8"?>
<svg xmlns="http://www.w3.org/2000/svg" id="Layer_1" data-name="Layer 1" viewBox="0 0 24 24" width="512" height="512"><path d="M22.209,3.407c-.091-.068-.184-.131-.279-.19-.179-.95-.702-1.797-1.494-2.395-.994-.75-2.251-.982-3.445-.641l-3.643,1.041c-.5,.143-.956,.382-1.349,.693-.393-.311-.849-.55-1.349-.693L7.008,.182c-1.194-.34-2.451-.108-3.445,.641-.792,.597-1.314,1.445-1.494,2.395-.095,.059-.188,.122-.279,.19-1.138,.858-1.791,2.167-1.791,3.593v13.631l12,3.429,12-3.429V7c0-1.425-.653-2.735-1.791-3.593Zm-8.709,1.593c0-.412,.277-.779,.673-.893,0,0,3.824-1.079,3.905-1.079,.256,0,.448,.11,.552,.189,.138,.104,.37,.339,.37,.741v13.481l-5.5,1.571V5ZM5,3.959c0-.402,.231-.637,.37-.741,.138-.104,.426-.262,.814-.151l3.643,1.041c.396,.113,.673,.48,.673,.893v14.011l-5.5-1.571V3.959Z"/></svg>
