<?xml version="1.0" encoding="UTF-8"?>
<svg xmlns="http://www.w3.org/2000/svg" id="Layer_1" data-name="Layer 1" viewBox="0 0 24 24" width="512" height="512"><path d="M10.861,13.614l-1.056.638A5.013,5.013,0,0,0,8,13.23V12H5v1.23A5.013,5.013,0,0,0,3.2,14.252l-1.056-.638L.588,16.183l1.053.635a5.025,5.025,0,0,0,0,2.364l-1.053.635,1.551,2.569L3.2,21.748A5.013,5.013,0,0,0,5,22.77V24H8V22.77a5.013,5.013,0,0,0,1.8-1.022l1.056.638,1.551-2.569-1.053-.635a5.025,5.025,0,0,0,0-2.364l1.053-.635ZM6.5,20a2,2,0,1,1,2-2A2,2,0,0,1,6.5,20ZM24,10.5A3.5,3.5,0,0,0,20.5,7H20V4H17V7H15.315L11.968,1.645A3.48,3.48,0,0,0,9,0H3V7.036A3.5,3.5,0,0,0,0,10.5v2.221a8.007,8.007,0,0,1,3-2.134V10.5a.5.5,0,0,1,.5-.5h17a.5.5,0,0,1,.5.5v2.07L19.422,15.1a4.508,4.508,0,1,0,2.562,1.56L24,13.43ZM6,7V3H9a.5.5,0,0,1,.424.235L11.777,7ZM18.5,21A1.5,1.5,0,1,1,20,19.5,1.5,1.5,0,0,1,18.5,21Z"/></svg>
