<?xml version="1.0" encoding="UTF-8"?>
<svg xmlns="http://www.w3.org/2000/svg" id="Layer_1" data-name="Layer 1" viewBox="0 0 24 24" width="512" height="512"><path d="M6.5,5c.828,0,1.5,.672,1.5,1.5s-.672,1.5-1.5,1.5-1.5-.672-1.5-1.5,.672-1.5,1.5-1.5Zm6.5,1.5c0-.828-.672-1.5-1.5-1.5s-1.5,.672-1.5,1.5,.672,1.5,1.5,1.5,1.5-.672,1.5-1.5ZM20.5,0H3.5C1.57,0,0,1.57,0,3.5V24H11.356c-1.004-.811-1.825-1.835-2.406-3H3V3.5c0-.276,.225-.5,.5-.5H20.5c.275,0,.5,.224,.5,.5v5.513c1.012,.822,2.098,1.765,3,2.872V3.5c0-1.93-1.57-3.5-3.5-3.5Zm3.5,17c0,3.866-3.134,7-7,7s-7-3.134-7-7c0-2.013,1.167-3.57,2.328-4.768,0,0,.794,2.435,1.501,2.435,1.474,0,1.047-3.949,3.171-6.402,2.211,2.211,7,4.682,7,8.735Zm-5.232,.768l-1.768-1.768-1.768,1.768c-.976,.976-.976,2.559,0,3.536,.976,.976,2.559,.976,3.535,0,.976-.976,.976-2.559,0-3.536Z"/></svg>
