<?xml version="1.0" encoding="UTF-8"?>
<svg xmlns="http://www.w3.org/2000/svg" id="Layer_1" data-name="Layer 1" viewBox="0 0 24 24" width="512" height="512"><path d="M8,21a3,3,0,1,1-3-3A3,3,0,0,1,8,21Zm11-3a3,3,0,1,0,3,3A3,3,0,0,0,19,18ZM23.919,4.371,22,12.671v4.352A4.954,4.954,0,0,0,19,16V14H5v2a4.956,4.956,0,0,0-3,1.023V12.671L.081,4.345a3.141,3.141,0,0,1,.8-2.888A3.107,3.107,0,0,1,3.693.551a5.784,5.784,0,0,1,.749.22A3.317,3.317,0,0,0,5.319,1,6.08,6.08,0,0,0,7.781.363L8.406.021l.662.27A9.8,9.8,0,0,0,12,1,6.594,6.594,0,0,0,14.788.359L15.5-.02l.718.383A6,6,0,0,0,18.682,1,3.3,3.3,0,0,0,19.6.779a5.76,5.76,0,0,1,.713-.2,3.1,3.1,0,0,1,2.812.906A3.141,3.141,0,0,1,23.919,4.371ZM19.307,11,21,3.7a.138.138,0,0,0-.039-.135.092.092,0,0,0-.1-.035c-.085.019-.189.058-.308.1A5.783,5.783,0,0,1,18.682,4,7.637,7.637,0,0,1,17,3.8V9H14V3.779A9.373,9.373,0,0,1,12,4a8.778,8.778,0,0,1-2-.275V9H7V3.8A7.625,7.625,0,0,1,5.319,4,5.611,5.611,0,0,1,3.45,3.6c-.122-.043-.23-.085-.319-.106-.011,0-.045-.009-.088.036a.142.142,0,0,0-.038.137L4.694,11ZM10,21h4a4.956,4.956,0,0,1,1.023-3H8.978A4.955,4.955,0,0,1,10,21Z"/></svg>
