<?xml version="1.0" encoding="UTF-8"?>
<svg xmlns="http://www.w3.org/2000/svg" id="Layer_1" data-name="Layer 1" viewBox="0 0 24 24" width="512" height="512"><path d="M18.633,6.968c-1.443-3.001-4.517-4.968-7.883-4.968C5.925,2,2,5.925,2,10.75c0,.342,.022,.688,.065,1.037-1.278,1.13-2.065,2.771-2.065,4.417,0,3.196,2.386,5.796,5.318,5.796h10.978c4.248,0,7.704-3.456,7.704-7.705,0-3.359-2.214-6.321-5.367-7.327Zm-2.337,12.032H5.318c-1.278,0-2.318-1.254-2.318-2.796,0-.948,.596-1.948,1.484-2.488l.933-.566-.253-1.062c-.108-.456-.164-.906-.164-1.337,0-3.171,2.58-5.75,5.75-5.75,2.388,0,4.552,1.509,5.385,3.753l.29,.781,.815,.167c2.179,.446,3.76,2.378,3.76,4.594,0,2.595-2.11,4.705-4.704,4.705Zm-.737-6h-2.559v4h-3v-4h-2.559l3.159-3.583c.48-.556,1.32-.556,1.8,0l3.159,3.583Z"/></svg>
