<?xml version="1.0" encoding="UTF-8"?>
<svg xmlns="http://www.w3.org/2000/svg" id="Layer_1" data-name="Layer 1" viewBox="0 0 24 24" width="512" height="512"><path d="M12,18c4.963,0,9-4.037,9-9S16.963,0,12,0,3,4.037,3,9s4.037,9,9,9Zm-4-7h3v.5c0,.275,.224,.5,.5,.5h1c.276,0,.5-.225,.5-.5,0-.294-.176-.555-.449-.664l-2.216-.887c-1.418-.566-2.335-1.921-2.335-3.449,0-1.58,1.059-2.903,2.5-3.337v-1.163h3v1.163c1.441,.434,2.5,1.757,2.5,3.337v.5h-3v-.5c0-.275-.224-.5-.5-.5h-1c-.276,0-.5,.225-.5,.5,0,.294,.176,.555,.449,.664l2.216,.887c1.418,.566,2.335,1.921,2.335,3.449,0,1.58-1.059,2.903-2.5,3.337v1.163h-3v-1.163c-1.441-.434-2.5-1.757-2.5-3.337v-.5Zm16,8.5c0,2.481-2.019,4.5-4.5,4.5H4.5c-2.481,0-4.5-2.019-4.5-4.5,0-1.945,1.247-3.59,2.978-4.217,.737,1.057,1.655,1.976,2.709,2.717h-1.187c-.827,0-1.5,.673-1.5,1.5s.673,1.5,1.5,1.5h15c.827,0,1.5-.673,1.5-1.5s-.673-1.5-1.5-1.5h-1.187c1.054-.741,1.972-1.66,2.709-2.717,1.731,.627,2.978,2.272,2.978,4.217Z"/></svg>
