<?xml version="1.0" encoding="UTF-8"?>
<svg xmlns="http://www.w3.org/2000/svg" id="Layer_1" data-name="Layer 1" viewBox="0 0 24 24" width="512" height="512"><path d="M23.193,15.543l-4.929,4.859c-2.354,2.32-5.47,3.598-8.775,3.598H0v-3H9.489c2.383,0,4.637-.874,6.389-2.469-.56,.299-1.2,.469-1.878,.469h-5v-3h5c.552,0,1-.448,1-1v-1h-6.188c-2.27,0-4.404,.884-6.011,2.489l-.616,.617L.062,14.987l.617-.618c2.174-2.173,5.062-3.369,8.133-3.369h9.188v2.227l1.53-1.474c.527-.528,1.286-.81,2.056-.744,.771,.062,1.476,.46,1.932,1.093,.745,1.035,.604,2.515-.324,3.441ZM11,7.379v1.621h3v-1.621c3.897-.518,5.5-2.747,5.5-7.379-3.897,0-6.092,1.134-7,3.814-.908-2.68-3.103-3.814-7-3.814,0,4.632,1.603,6.861,5.5,7.379Z"/></svg>
