<?xml version="1.0" encoding="UTF-8"?>
<svg xmlns="http://www.w3.org/2000/svg" id="Layer_1" data-name="Layer 1" viewBox="0 0 24 24" width="512" height="512"><path d="M11.184,20.1A108.043,108.043,0,0,1,10,8l0-1.462L10.882,4.4a1.635,1.635,0,0,0-.255-1.64A2.115,2.115,0,0,0,8.973,2H8.026V0h-3V2h-1a2.117,2.117,0,0,0-1.654.761,1.644,1.644,0,0,0-.25,1.653L3,6.533V8A107.749,107.749,0,0,1,1.861,20.083,2.5,2.5,0,0,0,0,22.5V24H13V22.5A2.5,2.5,0,0,0,11.184,20.1ZM7.039,9.5c.151,3.336.707,7.709,1.1,10.5H4.9c.382-2.787.922-7.156,1.062-10.5ZM22,20.05V13h1V8H20v2H19V8H16v2H15V8H12v5h1v5.762A4.5,4.5,0,0,1,15,22.5V24h9V22.5A2.5,2.5,0,0,0,22,20.05ZM16,13h3v7H16Z"/></svg>
