<?xml version="1.0" encoding="UTF-8"?>
<svg xmlns="http://www.w3.org/2000/svg" id="Layer_1" data-name="Layer 1" viewBox="0 0 24 24" width="512" height="512"><path d="M22.775,9.792c-.778-.649-1.8-.917-2.795-.737l-5.897,1.072c-.795,.145-1.507,.499-2.083,1-.576-.501-1.288-.855-2.083-1l-5.898-1.073c-.997-.179-2.015,.087-2.794,.737-.778,.649-1.225,1.604-1.225,2.617v9.433l12,2.182,12-2.182V12.41c0-1.014-.446-1.967-1.225-2.617Zm-12.275,10.91l-7.5-1.364v-6.929c0-.167,.092-.268,.147-.314,.055-.046,.169-.117,.335-.089l5.898,1.072c.648,.118,1.12,.683,1.12,1.342v6.281Zm10.5-1.364l-7.5,1.364v-6.281c0-.66,.471-1.224,1.12-1.342l5.897-1.072c.166-.033,.28,.042,.335,.088,.056,.046,.147,.147,.147,.314v6.929ZM7.5,4.5C7.5,2.015,9.515,0,12,0s4.5,2.015,4.5,4.5-2.015,4.5-4.5,4.5-4.5-2.015-4.5-4.5Z"/></svg>
