<?xml version="1.0" encoding="UTF-8"?>
<svg xmlns="http://www.w3.org/2000/svg" id="Layer_1" data-name="Layer 1" viewBox="0 0 24 24" width="512" height="512"><path d="M18.5,17A5.506,5.506,0,0,0,24,11.5V6H17V8.5a.5.5,0,0,1-.5.5H11.685a.5.5,0,0,1-.486-.379l-.863-3.455A5.492,5.492,0,0,0,5,1H0V11.5a5.507,5.507,0,0,0,5,5.477V20H0v3H19.5A4.505,4.505,0,0,0,24,18.5V18H21v.5A1.5,1.5,0,0,1,19.5,20H17V17ZM3,11.5V4H5A2.5,2.5,0,0,1,7.426,5.894l.863,3.455A3.494,3.494,0,0,0,11.685,12H16.5a3.507,3.507,0,0,0,3.465-3H21v2.5A2.5,2.5,0,0,1,18.5,14H5.5A2.5,2.5,0,0,1,3,11.5ZM14,20H8V17h6Z"/></svg>
