<?xml version="1.0" encoding="UTF-8"?>
<svg xmlns="http://www.w3.org/2000/svg" id="Layer_1" data-name="Layer 1" viewBox="0 0 24 24" width="512" height="512"><path d="M15.904,24h-7.809c-3.361,0-6.096-2.734-6.096-6.096v-.904h3v.904c0,1.707,1.389,3.096,3.096,3.096h7.809c1.707,0,3.096-1.389,3.096-3.096,0-1.372-.921-2.595-2.24-2.975l-10.35-2.977c-2.597-.747-4.41-3.155-4.41-5.857C2,2.734,4.734,0,8.096,0h7.809c3.361,0,6.096,2.734,6.096,6.096v.904h-3v-.904c0-1.707-1.389-3.096-3.096-3.096h-7.809c-1.707,0-3.096,1.389-3.096,3.096,0,1.372,.921,2.595,2.24,2.975l10.35,2.977c2.597,.747,4.41,3.155,4.41,5.857,0,3.361-2.734,6.096-6.096,6.096Z"/></svg>
