<?xml version="1.0" encoding="UTF-8"?>
<svg xmlns="http://www.w3.org/2000/svg" id="Layer_1" data-name="Layer 1" viewBox="0 0 24 24" width="512" height="512"><path d="M15,7.5C15,3.364,11.636,0,7.5,0H0V24H3V15h3.315l4.846,9h3.407l-5.002-9.289c3.135-.899,5.435-3.791,5.435-7.211ZM3,3H7.5c2.481,0,4.5,2.019,4.5,4.5s-2.019,4.5-4.5,4.5H3V3Zm18,13v-.5c0-.275-.225-.5-.5-.5h-2c-.275,0-.5,.225-.5,.5,0,.251,.159,.473,.397,.552l3.153,1.051c1.465,.488,2.449,1.854,2.449,3.397,0,1.93-1.57,3.5-3.5,3.5h-2c-1.93,0-3.5-1.57-3.5-3.5v-.5h3v.5c0,.275,.225,.5,.5,.5h2c.275,0,.5-.225,.5-.5,0-.251-.159-.473-.397-.552l-3.153-1.051c-1.465-.488-2.449-1.854-2.449-3.397,0-1.93,1.57-3.5,3.5-3.5h2c1.93,0,3.5,1.57,3.5,3.5v.5h-3Z"/></svg>
