<?xml version="1.0" standalone="no"?>
<!DOCTYPE svg PUBLIC "-//W3C//DTD SVG 20010904//EN"
 "http://www.w3.org/TR/2001/REC-SVG-20010904/DTD/svg10.dtd">
<svg version="1.0" xmlns="http://www.w3.org/2000/svg"
 width="900.000000pt" height="706.000000pt" viewBox="0 0 900.000000 706.000000"
 preserveAspectRatio="xMidYMid meet">

<g transform="translate(0.000000,706.000000) scale(0.100000,-0.100000)"
fill="#000000" stroke="none">
<path d="M2300 3515 l0 -3075 108 1 c59 0 100 3 92 6 -8 2 -22 7 -30 10 -8 3
-22 7 -30 7 -8 1 -14 7 -13 14 2 6 -1 12 -5 12 -5 0 -17 6 -28 14 -18 13 -19
32 -25 243 l-5 228 -1 -228 c-1 -126 -4 -231 -7 -235 -8 -8 -7 5235 1 5676 3
199 8 360 11 358 2 -3 5 -107 5 -233 l1 -228 5 215 6 215 1975 2 c1739 2 1973
1 1956 -12 -19 -14 -19 -15 6 -15 14 0 31 -7 38 -15 7 -8 20 -16 29 -17 9 -2
-861 -5 -1934 -8 l-1950 -5 1955 -3 1955 -3 35 -29 c19 -17 38 -30 44 -30 5 0
24 -11 42 -25 18 -14 43 -29 56 -35 14 -5 -290 -9 -808 -9 l-830 -1 -2 -79 -1
-79 40 -7 c28 -5 47 -17 69 -43 l30 -37 0 48 c0 68 14 91 52 83 32 -6 67 -41
68 -68 1 -47 4 -48 161 -48 l149 0 14 34 c17 42 30 50 56 36 45 -24 47 -48 37
-609 l-2 -113 -35 -29 c-34 -29 -36 -29 -165 -30 l-130 0 81 -28 c129 -44 186
-97 220 -205 18 -57 18 -58 -1 -72 -23 -17 -31 -18 -44 -1 -48 60 -89 100
-124 120 -60 35 -199 75 -287 82 -117 10 -146 20 -170 60 -17 27 -22 53 -23
108 -2 80 -9 97 -37 97 -15 0 -23 -11 -31 -45 -16 -63 -33 -58 -25 7 4 28 9
55 12 60 9 13 58 9 82 -8 19 -13 22 -24 22 -88 0 -85 12 -126 42 -145 12 -7
65 -17 117 -21 193 -15 357 -89 422 -189 8 -14 20 -21 27 -17 11 6 4 31 -33
111 -40 89 -226 161 -455 177 l-35 3 -5 96 c-3 62 -10 102 -19 113 -22 27 -66
46 -106 46 -19 0 -35 1 -35 3 0 2 9 21 20 44 18 39 81 103 100 103 5 0 20 19
32 43 30 56 34 201 8 250 -27 50 -52 58 -160 46 -153 -15 -156 -55 -5 -66 40
-3 79 -9 87 -14 9 -6 13 -32 13 -88 l0 -81 -62 -57 c-60 -56 -103 -120 -103
-154 0 -23 -20 -37 -65 -47 -52 -10 -54 -26 -5 -46 22 -9 40 -20 40 -25 0 -24
-14 -41 -35 -41 -13 0 -31 -11 -42 -25 -17 -24 -19 -24 -29 -8 -7 12 -8 27 -3
42 8 19 15 22 39 19 16 -3 29 -3 27 -2 -1 2 -20 15 -41 29 l-39 26 -28 -26
c-15 -15 -32 -24 -38 -21 -8 5 -11 -17 -10 -71 1 -67 14 -161 18 -125 1 16 46
16 60 -1 6 -8 8 -17 4 -20 -3 -4 3 -7 14 -7 18 0 20 -6 19 -50 -1 -27 1 -50 4
-50 4 0 7 6 7 13 0 6 3 36 7 65 6 51 -8 92 -38 113 -5 4 -6 15 -2 25 6 16 10
14 21 -14 8 -18 21 -40 30 -48 12 -12 15 -42 15 -142 0 -126 10 -173 29 -143
5 8 12 30 16 49 3 19 11 46 17 61 10 24 11 25 18 6 7 -21 -24 -131 -44 -152
-15 -17 -78 12 -148 69 -30 23 -61 48 -69 53 -12 8 -13 57 -9 298 6 318 3 307
71 307 42 0 57 21 33 45 -13 13 -42 15 -172 13 -146 -3 -157 -4 -160 -22 -6
-30 26 -46 90 -46 l58 0 0 -187 c0 -104 3 -226 7 -272 l6 -85 -45 38 -46 38
-7 167 c-11 247 -11 251 -27 268 -13 12 -20 13 -38 3 -22 -12 -23 -14 -16
-144 4 -72 13 -166 20 -208 12 -78 7 -95 -21 -67 -8 8 -13 8 -17 0 -22 -35
-26 10 -26 283 l0 294 67 7 c83 9 93 13 93 35 0 15 -12 19 -62 25 -93 11 -98
15 -98 86 0 44 -6 71 -22 99 -13 22 -26 40 -29 40 -14 0 -23 -39 -29 -125 l-5
-90 -60 -6 c-70 -8 -95 -16 -95 -34 0 -18 23 -25 80 -25 88 0 81 34 80 -387
-1 -377 6 -473 36 -473 6 0 14 17 18 38 3 20 11 54 16 75 l11 38 127 -107 c70
-59 134 -116 143 -127 9 -11 30 -27 46 -36 16 -9 46 -25 66 -35 29 -16 37 -26
37 -48 0 -15 -3 -28 -7 -28 -25 1 -159 41 -223 68 -41 16 -92 35 -112 42 -21
6 -40 16 -44 21 -13 22 -111 62 -163 66 -47 4 -59 2 -78 -16 -43 -40 -23 -106
40 -137 l32 -15 -26 24 c-39 35 -51 61 -40 90 22 56 120 47 206 -18 25 -19 55
-35 67 -35 30 0 106 -29 147 -57 19 -13 44 -25 55 -27 52 -10 127 -27 195 -46
75 -20 116 -19 108 3 -2 7 -74 59 -160 117 -86 58 -171 120 -190 138 -18 17
-37 32 -42 32 -5 0 -18 9 -30 20 -11 11 -46 41 -77 67 -31 27 -67 61 -79 76
-20 27 -21 30 -5 45 38 38 142 5 210 -67 17 -17 36 -31 44 -31 18 0 66 -33
122 -85 25 -22 72 -52 105 -64 33 -13 92 -41 131 -62 66 -35 74 -37 113 -27
34 9 41 15 41 34 0 18 -6 24 -22 24 -16 1 -32 15 -53 47 -16 26 -41 61 -56 78
-14 16 -31 44 -36 61 -6 17 -24 51 -39 75 -82 128 -107 184 -94 209 6 11 18
20 28 20 45 0 66 -16 106 -79 24 -37 63 -91 87 -121 24 -30 57 -80 73 -110 52
-99 92 -145 161 -185 35 -21 78 -53 95 -72 17 -18 34 -33 39 -33 16 0 230
-157 277 -202 24 -23 61 -47 81 -53 34 -9 39 -15 45 -50 10 -60 9 -165 -3
-208 -14 -53 -72 -146 -122 -197 -35 -36 -49 -43 -83 -45 l-40 -1 13 39 c7 21
19 48 27 60 18 30 28 85 16 92 -6 4 -10 -6 -10 -22 0 -15 -12 -55 -27 -89 -27
-62 -55 -86 -113 -97 -14 -2 -59 -14 -100 -25 -41 -11 -96 -23 -121 -27 l-46
-7 -6 39 c-10 57 -8 111 3 118 6 3 10 21 10 39 0 32 2 33 38 32 l37 -1 -2 55
c-2 47 1 59 27 92 37 45 40 62 4 19 -14 -17 -31 -31 -37 -31 -6 0 0 12 14 28
13 15 17 21 9 15 -22 -20 -37 -15 -48 17 -9 23 -7 37 10 72 12 24 23 61 25 83
2 22 4 54 6 70 3 37 19 44 29 13 4 -13 5 -3 1 22 -9 61 -9 89 0 128 6 31 6 32
-12 15 -11 -10 -33 -35 -50 -57 -27 -33 -29 -40 -16 -53 24 -24 18 -35 -15
-28 -26 6 -30 4 -32 -17 -1 -13 -2 -32 -3 -43 -1 -11 -3 -27 -4 -36 0 -8 -11
-26 -23 -39 -13 -14 -22 -28 -20 -33 4 -15 -28 -67 -43 -67 -7 0 -21 -10 -29
-22 -14 -20 -14 -23 -1 -31 8 -4 15 -12 15 -16 0 -16 -32 -22 -48 -9 -13 11
-14 9 -10 -20 6 -44 -7 -50 -22 -9 -9 23 -14 27 -17 15 -2 -9 3 -28 12 -41 12
-19 13 -30 5 -51 -14 -37 -13 -38 13 -30 26 9 68 7 78 -4 7 -6 14 -59 32 -235
1 -12 -22 -30 -80 -62 l-82 -45 4 33 c3 17 2 25 -1 17 -12 -27 -37 -50 -55
-50 -9 0 -56 -20 -105 -45 -48 -25 -90 -45 -94 -45 -13 0 -32 58 -25 79 11 36
76 89 123 101 56 14 142 57 164 82 30 35 13 77 -55 138 -90 82 -119 92 -267
96 -69 1 -163 10 -210 18 -47 9 -98 16 -115 16 -33 0 -243 108 -259 133 -7 10
-5 23 7 41 28 42 59 43 161 3 103 -40 157 -48 383 -53 84 -1 157 -5 163 -9 9
-6 40 44 40 65 0 13 -40 49 -55 50 -30 1 -245 89 -381 156 -85 42 -157 74
-160 72 -5 -6 100 -70 143 -88 18 -7 30 -16 27 -21 -3 -5 2 -6 12 -2 13 5 15
2 9 -15 -4 -14 -2 -22 5 -22 6 0 8 5 5 10 -3 6 -2 10 4 10 18 0 21 -18 3 -26
-9 -4 -21 -6 -25 -5 -5 1 -6 -3 -2 -9 5 -8 11 -7 21 1 8 6 14 8 14 4 0 -4 6
-3 13 3 9 7 20 4 40 -14 15 -13 24 -24 19 -24 -5 0 -17 9 -27 20 -17 19 -41
18 -30 -1 4 -5 1 -9 -4 -9 -6 0 -11 5 -11 12 0 9 -3 9 -12 0 -8 -8 -8 -15 2
-27 7 -8 9 -15 5 -15 -4 0 -1 -8 6 -17 13 -16 12 -17 -3 -4 -10 7 -15 17 -13
22 3 4 -6 16 -20 25 -13 9 -22 21 -19 26 4 6 -2 6 -13 -1 -11 -6 -23 -7 -27
-4 -3 3 -6 -1 -6 -10 0 -22 -23 -27 -37 -8 -10 14 -11 13 -7 -6 4 -15 0 -25
-16 -33 -15 -8 -20 -8 -16 -1 10 15 -7 14 -22 -1 -10 -10 -11 -5 -6 22 4 19 7
37 6 40 0 23 -4 30 -16 30 -9 0 -12 7 -9 20 8 31 -6 24 -64 -31 -58 -55 -74
-55 -79 -2 l-3 28 15 -25 c14 -23 15 -24 11 -3 -4 19 -2 21 13 13 13 -7 21 -5
30 5 7 8 9 15 6 15 -4 0 -2 10 4 23 10 20 10 21 -4 4 -13 -17 -15 -16 -21 15
-4 18 -16 43 -28 55 -14 16 -17 26 -9 35 15 18 15 20 3 50 -7 19 -7 27 0 25 6
-1 17 16 25 38 8 22 16 42 17 45 1 3 -2 6 -7 7 -5 1 -15 19 -22 40 -16 46 -17
53 -3 33 9 -12 10 -11 6 6 -2 12 0 28 5 35 6 10 8 -1 4 -31 -4 -38 -3 -42 7
-24 7 12 19 19 27 17 10 -3 9 0 -2 7 -10 6 -18 16 -18 22 0 7 6 6 15 -2 13
-11 14 -10 9 6 -4 10 -13 26 -20 34 -10 12 -12 73 -9 280 3 160 1 257 -5 245
-5 -11 -9 -101 -9 -200 -2 -345 -30 -460 -101 -415 -20 12 -29 142 -25 342 l4
156 -32 -9 c-49 -14 -82 -11 -100 9 -15 16 -15 20 -1 40 8 12 40 38 71 59 60
39 76 67 88 147 7 47 7 48 -14 37 -12 -7 -49 -11 -84 -9 -55 3 -62 5 -65 25
-2 16 10 31 50 61 29 22 61 48 70 59 24 27 48 87 48 121 0 16 9 41 21 56 36
45 119 29 119 -24 0 -32 -22 -124 -36 -152 l-14 -27 28 15 c15 7 46 14 69 14
l43 0 -1 84 c-1 83 10 120 38 130 39 15 72 -37 88 -139 8 -54 15 -71 29 -73
14 -3 16 0 8 15 -15 28 -13 93 5 143 20 56 31 70 52 70 19 0 61 -51 61 -75 0
-18 16 -20 26 -4 5 8 31 10 85 5 97 -8 129 -20 137 -49 5 -19 7 -17 13 13 3
19 9 42 13 51 8 17 -17 49 -37 49 -7 0 -6 -4 3 -10 13 -8 12 -10 -3 -10 -10 0
-16 -4 -13 -9 3 -5 0 -11 -7 -14 -26 -10 -64 5 -79 30 -14 24 -14 29 4 60 22
36 61 52 87 36 12 -7 20 -6 29 3 11 12 -143 14 -983 14 l-995 0 0 -3010 0
-3010 749 0 c708 0 749 1 746 18 -2 9 -4 19 -4 22 -1 3 -10 6 -21 7 -13 1 -18
-2 -13 -10 3 -7 -3 -4 -15 6 -12 12 -26 16 -34 11 -10 -6 -10 -4 1 9 11 14 11
17 0 17 -12 0 -12 2 -1 9 11 7 11 11 -2 24 -9 8 -16 18 -16 21 0 4 -11 24 -25
47 -27 42 -26 59 5 59 10 0 33 14 51 31 55 51 77 59 129 43 64 -19 76 -43 49
-95 -23 -46 -22 -51 10 -42 15 4 20 11 17 22 -6 15 -5 15 6 0 12 -15 52 -23
43 -9 -2 4 9 7 25 8 35 1 36 -3 10 -59 -11 -24 -20 -57 -20 -72 0 -16 -5 -37
-10 -48 -11 -19 6 -19 1155 -19 l1165 0 0 3024 c0 2541 -2 3025 -14 3029 -16
6 -181 131 -217 163 -14 13 -28 24 -32 24 -3 0 -26 14 -50 30 l-45 30 -2036 0
-2036 0 0 -3075z m1047 2673 c6 -7 13 -29 17 -49 10 -55 22 -60 132 -57 95 3
98 4 104 28 3 14 18 31 33 40 25 14 28 13 52 -10 24 -25 26 -33 32 -171 5
-122 3 -149 -10 -176 -21 -39 -63 -73 -92 -73 -38 0 -36 -12 8 -40 23 -15 58
-45 78 -67 47 -52 58 -112 61 -333 2 -155 0 -178 -16 -202 -37 -56 -77 -21
-97 85 -5 29 -15 122 -21 207 -12 175 -22 200 -86 221 -20 6 -40 16 -44 22 -4
6 -12 4 -23 -6 -9 -10 -22 -17 -29 -17 -6 0 -28 -17 -48 -37 -28 -30 -38 -49
-43 -88 -4 -27 -13 -85 -21 -129 -8 -43 -14 -97 -14 -120 0 -59 -33 -160 -52
-164 -9 -2 -26 6 -38 18 -21 21 -22 27 -15 163 4 78 9 150 11 160 7 22 3 22
-41 -4 -29 -18 -48 -21 -110 -17 -66 3 -78 7 -102 31 l-28 27 -2 173 c0 94 -4
211 -8 259 -6 84 -5 89 18 112 17 17 31 22 51 19 38 -8 58 -44 60 -108 1 -53
2 -55 29 -55 22 0 27 4 27 24 0 52 74 68 112 25 9 -11 19 -16 21 -12 2 5 5 62
6 128 2 144 8 182 30 195 23 13 47 12 58 -2z m2465 0 c8 -7 20 -22 26 -32 9
-19 10 -19 16 2 10 31 72 47 103 27 13 -9 23 -25 23 -36 0 -17 7 -48 35 -156
0 -1 12 -4 28 -8 21 -6 27 -4 27 9 0 9 -4 16 -10 16 -14 0 -70 101 -70 126 0
38 64 73 100 54 9 -5 26 -35 38 -67 31 -87 36 -121 21 -139 -11 -14 -10 -18 4
-29 9 -7 17 -22 17 -34 0 -16 6 -21 27 -21 l26 0 -6 128 c-6 139 -2 155 47
168 34 8 64 -16 71 -60 3 -17 7 -76 8 -131 l3 -100 65 -6 c83 -7 107 -16 114
-40 12 -36 -19 -56 -97 -64 l-70 -7 4 -49 c3 -27 7 -51 9 -53 2 -3 29 -7 59
-10 92 -10 115 -19 118 -48 4 -35 -15 -47 -87 -54 -33 -4 -61 -10 -61 -14 0
-3 13 -58 30 -121 30 -119 58 -196 105 -291 24 -47 26 -59 16 -72 -22 -26 -46
-18 -88 27 -73 79 -145 238 -173 382 -15 72 -18 79 -34 66 -8 -7 -13 -55 -14
-153 -3 -159 -10 -244 -24 -270 -10 -21 -41 -24 -56 -5 -19 22 -42 134 -42
201 l0 66 -61 0 -60 0 6 -67 c4 -45 0 -101 -12 -168 -16 -89 -21 -100 -40
-103 -46 -7 -67 78 -72 299 l-1 36 -88 5 c-101 6 -132 18 -132 53 0 35 27 57
69 55 20 -1 64 -2 99 -1 59 1 62 2 62 26 0 23 -4 25 -42 25 -51 0 -103 33
-118 74 -5 16 -10 92 -10 168 0 134 1 140 25 163 13 14 29 25 35 25 16 0 12
19 -11 43 -25 26 -59 94 -59 117 0 25 41 57 76 59 5 1 17 -5 26 -11z m683 -22
c23 -35 22 -151 -1 -177 -9 -10 -23 -19 -31 -19 -18 0 -49 53 -70 117 -15 48
-15 53 1 77 23 36 79 36 101 2z m-3460 -1127 c9 -6 90 -4 90 1 0 6 71 7 80 2
15 -9 175 -8 175 1 0 10 91 5 107 -6 6 -4 14 -3 18 3 4 7 12 7 25 0 13 -7 21
-7 25 0 10 15 55 12 72 -6 15 -14 17 -14 25 0 12 22 38 20 38 -3 0 -10 9 -21
20 -24 21 -5 24 -15 12 -35 -12 -18 -140 -23 -157 -6 -14 14 -49 11 -70 -6 -9
-7 -16 -6 -25 5 -16 19 -30 19 -45 -2 -10 -13 -17 -14 -42 -6 -16 6 -42 9 -56
6 -19 -4 -29 0 -33 11 -5 13 -9 13 -24 -6 -16 -20 -20 -21 -43 -9 -18 10 -30
10 -45 2 -16 -8 -28 -8 -48 1 -22 10 -28 10 -32 0 -5 -15 -34 -16 -48 -2 -8 8
-20 7 -39 0 -22 -8 -31 -8 -41 2 -15 15 -21 58 -11 74 7 12 54 13 72 3z m3295
-328 c0 -256 2 -291 17 -306 9 -10 26 -15 39 -12 28 5 49 -7 40 -22 -5 -7 -58
-11 -157 -11 -138 0 -150 1 -147 18 2 11 14 18 38 20 41 4 60 24 60 65 0 30
-52 85 -144 152 -23 16 -43 32 -46 35 -12 12 -216 111 -230 110 -23 0 -102
-32 -133 -53 -15 -10 -33 -17 -39 -15 -27 9 138 88 184 88 19 0 140 -61 168
-85 8 -7 47 -29 86 -48 48 -24 85 -52 113 -84 l41 -48 0 218 0 218 -45 -7
c-37 -5 -45 -3 -45 9 0 11 16 19 53 26 28 5 61 12 72 14 11 3 32 5 48 6 l27 1
0 -289z m-2588 103 c-3 -26 2 -44 17 -65 11 -15 21 -34 21 -41 0 -9 3 -9 11
-1 8 8 8 17 -1 33 -6 12 -9 24 -7 27 3 2 8 -4 11 -15 4 -10 19 -31 35 -45 l29
-25 21 29 c11 15 21 31 21 35 0 10 31 44 40 44 4 0 5 -11 3 -24 -7 -34 47
-146 70 -146 9 0 38 19 64 43 l46 42 -7 -40 c-7 -38 -7 -39 9 -20 16 20 16 19
9 -5 -9 -33 -23 -42 -57 -35 -39 7 -95 -19 -109 -50 -9 -21 -8 -32 5 -60 9
-19 22 -35 28 -35 6 0 9 -6 6 -14 -3 -8 10 -22 35 -36 41 -23 71 -71 73 -120
3 -38 -3 -41 -41 -19 -60 33 -77 46 -144 110 -60 58 -113 90 -180 109 -26 7
-28 5 -32 -21 -3 -16 -1 -29 4 -29 5 0 18 -15 29 -34 12 -20 35 -40 57 -49 43
-18 186 -152 196 -185 6 -16 3 -24 -10 -29 -10 -4 -19 -2 -22 5 -2 7 -8 12
-14 12 -17 0 -116 51 -129 66 -6 8 -16 14 -21 14 -5 0 -21 9 -36 20 -27 20
-68 27 -107 17 -24 -5 -22 -21 7 -94 22 -54 38 -68 38 -34 0 11 4 22 9 25 10
7 162 -90 174 -110 5 -8 12 -12 18 -9 5 3 6 -1 3 -9 -3 -8 -1 -23 6 -33 10
-16 10 -15 5 5 -9 32 -2 28 29 -16 22 -33 26 -49 27 -118 1 -64 3 -72 9 -44 5
19 6 49 3 65 l-5 30 17 -23 c13 -18 15 -34 10 -72 -5 -34 -3 -50 4 -50 6 0 11
9 11 20 0 22 15 27 23 8 4 -8 8 -4 12 10 8 26 6 25 40 12 17 -6 34 -27 49 -60
13 -27 25 -47 28 -45 12 13 -17 132 -39 158 -32 39 -32 69 0 36 13 -13 24 -26
24 -29 0 -19 25 -60 33 -55 7 4 7 12 0 25 -5 10 -10 41 -10 69 0 43 4 53 25
67 22 15 33 15 85 4 70 -15 120 -43 120 -67 0 -10 6 -30 14 -44 9 -18 11 -39
5 -70 -27 -151 -36 -170 -94 -215 -54 -40 -57 -52 -41 -143 15 -83 13 -101
-19 -175 -29 -67 -9 -49 23 22 30 65 31 71 21 131 -10 64 -10 64 21 94 16 16
30 33 30 38 0 5 6 9 13 9 16 0 57 37 57 50 0 12 -22 9 -33 -5 -5 -6 -6 -2 -3
8 3 10 6 23 6 29 0 6 19 -5 43 -24 23 -18 61 -46 85 -62 43 -29 50 -40 32 -51
-6 -4 -35 -55 -64 -114 -31 -64 -57 -106 -65 -103 -8 3 -10 -4 -6 -21 4 -15 0
-37 -8 -53 l-15 -29 -11 42 c-12 42 -41 79 -41 51 0 -8 4 -18 9 -23 5 -6 11
-31 14 -56 5 -43 2 -51 -66 -154 -40 -59 -79 -118 -87 -131 -8 -13 -23 -27
-32 -30 -21 -6 -61 13 -53 27 4 5 2 9 -3 9 -12 0 -3 38 10 46 6 4 14 1 18 -6
6 -9 9 -9 15 0 5 8 11 6 21 -7 12 -16 15 -16 24 -3 16 24 11 37 -7 15 -12 -15
-14 -16 -10 -3 8 23 -20 47 -29 24 -3 -9 -10 -14 -14 -11 -8 5 10 59 49 148
11 27 21 52 21 55 0 6 -77 -128 -137 -239 -33 -62 -166 -199 -192 -199 -12 0
-49 23 -82 50 -33 28 -73 57 -88 64 -39 21 -56 42 -39 52 7 4 10 4 6 -1 -10
-10 39 -48 52 -40 20 12 -46 56 -76 51 -11 -2 -13 -1 -6 1 25 9 12 25 -15 18
-25 -6 -26 -5 -10 7 18 13 17 15 -4 33 -14 13 -20 15 -15 5 4 -8 0 -6 -8 4
-12 15 -16 16 -16 5 0 -8 5 -20 12 -27 8 -8 9 -12 1 -12 -14 0 -65 50 -100 99
-15 20 -34 42 -42 49 -14 12 -11 13 19 7 l35 -6 -25 22 -25 21 44 -7 c39 -6
43 -5 38 9 -4 11 -3 15 4 11 5 -4 7 -15 4 -26 -18 -55 31 -117 81 -105 32 8
21 26 -16 26 -30 0 -40 14 -40 61 0 17 -4 39 -10 49 -9 17 -12 18 -50 3 -52
-21 -86 -7 -145 59 -47 52 -54 67 -32 69 6 0 22 2 35 3 16 2 29 -5 39 -21 19
-28 37 -30 28 -3 -4 11 -2 20 4 20 6 0 11 -5 11 -10 0 -6 11 -8 25 -4 29 7 31
2 9 -21 -9 -9 -14 -19 -10 -22 12 -12 44 33 35 49 -13 23 -102 42 -165 34 -57
-7 -57 -7 -109 53 -27 31 -8 40 66 29 58 -8 103 -26 142 -57 14 -12 17 -12 17
0 -1 19 -25 49 -40 49 -7 0 -20 8 -29 18 -9 9 -23 18 -31 19 -8 1 -28 5 -44 9
-19 5 -27 3 -23 -3 5 -7 -4 -8 -26 -4 -17 4 -44 4 -59 0 -27 -7 -28 -6 -28 34
0 38 1 40 15 21 13 -16 14 -16 9 -1 -8 23 5 107 17 107 5 0 9 -15 9 -32 l0
-33 20 25 c11 14 28 48 39 75 18 48 19 49 26 23 7 -28 24 -39 22 -15 -4 35 16
97 30 97 12 0 14 8 9 38 -3 20 -6 47 -6 60 0 25 -22 29 -40 7 -9 -10 -9 -15
-1 -15 6 0 11 6 12 13 0 6 4 3 9 -8 12 -28 12 -75 0 -75 -5 0 -10 -9 -10 -19
0 -11 -4 -23 -10 -26 -6 -4 -10 10 -10 34 0 54 -16 53 -25 -1 -7 -38 -9 -40
-16 -20 -5 12 -6 28 -3 36 3 8 1 17 -5 21 -6 3 -11 15 -11 26 0 19 -1 19 -32
-3 -18 -13 -42 -25 -53 -26 -11 -2 -24 -8 -29 -13 -6 -5 -13 -9 -16 -9 -12 0
-4 58 10 75 8 10 9 15 1 15 -6 0 -11 5 -11 10 0 6 12 10 26 10 l25 0 -18 -30
c-9 -16 -21 -30 -25 -30 -4 0 -8 -5 -8 -10 0 -19 49 21 52 43 2 13 13 24 28
28 18 5 12 7 -26 8 -36 1 -59 8 -82 24 l-32 24 38 1 c29 0 33 -2 17 -8 -17 -7
-15 -9 12 -9 23 -1 42 8 67 33 20 18 36 38 36 44 0 7 8 9 18 5 19 -7 17 -4
-13 17 -11 8 -17 11 -14 7 4 -5 -4 -20 -17 -34 -13 -14 -24 -32 -24 -39 0 -8
-8 -14 -17 -14 -15 0 -16 2 -3 10 12 8 11 10 -6 10 -12 0 -27 7 -34 15 -7 8
-21 15 -32 15 -10 0 -17 3 -15 8 3 4 -5 7 -16 8 -12 0 -31 4 -42 8 -16 6 -15
4 5 -12 13 -11 28 -18 32 -16 4 3 8 1 8 -3 0 -9 -78 -27 -165 -38 l-50 -7 40
21 c22 12 56 42 75 67 34 44 41 46 83 29 10 -4 17 -3 17 4 0 6 -9 11 -19 11
-11 0 -23 5 -27 11 -3 6 -20 9 -38 6 -22 -3 -45 4 -79 23 -39 22 -44 28 -25
28 23 0 80 23 124 52 19 11 27 11 57 -3 43 -21 62 -22 27 -2 -14 8 -20 14 -14
15 6 0 22 -8 35 -19 13 -10 30 -16 38 -13 11 4 11 6 0 13 -10 6 -6 9 14 9 15
0 27 5 27 11 0 6 -12 10 -27 9 -57 -4 -92 0 -105 13 -7 7 -25 18 -40 24 -14 6
-29 21 -33 32 -3 11 -14 22 -23 24 -9 2 19 3 64 3 125 -2 133 12 59 109 -20
26 -34 49 -32 51 2 3 21 -5 41 -17 53 -31 138 -32 168 -2 17 18 20 25 10 35
-14 14 -16 32 -3 23 6 -3 -1 14 -14 37 -12 24 -26 54 -30 67 l-7 24 34 -27
c19 -14 45 -26 58 -26 23 0 23 7 4 67 -5 15 -3 15 13 -3 25 -29 155 -62 185
-47 4 2 -10 29 -31 61 -22 31 -42 68 -45 82 -5 18 -1 15 13 -11 20 -36 51 -69
51 -53 -1 5 -7 36 -15 69 -18 72 -18 75 -5 75 6 0 10 -6 10 -14 0 -38 145
-174 165 -155 2 3 -1 21 -7 41 -8 28 -8 44 2 68 11 26 47 80 54 80 1 0 0 -16
-2 -36z m84 27 c-3 -4 1 -16 8 -26 10 -14 10 -22 2 -31 -8 -9 -15 -7 -28 9
-10 11 -18 24 -18 30 0 5 9 -1 20 -14 20 -24 27 -16 11 11 -9 13 -6 30 5 30 3
0 3 -4 0 -9z m94 -20 c0 -5 -11 -12 -25 -15 -14 -4 -25 -10 -25 -14 0 -5 -7
-17 -15 -28 -10 -12 -14 -14 -13 -4 4 18 27 44 53 58 25 14 25 14 25 3z m140
-107 c0 -8 -19 -13 -24 -6 -3 5 1 9 9 9 8 0 15 -2 15 -3z m528 -101 c60 -26
86 -51 40 -38 -17 5 -19 4 -9 -3 8 -6 11 -17 8 -26 -9 -22 -31 -21 -23 2 6 16
5 16 -8 0 -13 -18 -32 -26 -22 -10 3 5 -1 9 -9 9 -8 0 -12 -5 -8 -10 3 -5 -4
-4 -16 2 -11 7 -21 8 -21 4 0 -4 -5 -1 -10 7 -5 8 -10 10 -10 4 0 -7 -7 -15
-16 -18 -14 -5 -15 -4 -4 9 10 12 9 19 -3 39 -12 18 -13 26 -4 35 7 7 8 12 2
11 -19 -4 -26 0 -19 11 9 15 55 5 132 -28z m-268 12 c11 -13 10 -14 -4 -9 -9
3 -16 10 -16 15 0 13 6 11 20 -6z m-77 -42 c-12 -19 -24 -27 -38 -25 -17 4
-15 8 15 32 19 16 36 27 38 25 2 -1 -5 -16 -15 -32z m62 7 c-11 -18 5 -32 21
-19 12 10 12 14 2 20 -9 6 -9 9 -1 9 21 0 26 -21 9 -38 -15 -15 -17 -15 -32 0
-14 14 -13 38 2 38 3 0 2 -4 -1 -10z m104 -46 c-6 -7 -15 -11 -21 -8 -5 3 -4
12 3 20 6 7 15 11 21 8 5 -3 4 -12 -3 -20z m709 -69 c7 -14 12 -34 12 -43 0
-10 5 -23 12 -30 10 -10 23 -72 14 -72 -6 0 -76 146 -76 158 0 22 27 12 38
-13z m-847 -126 c16 -8 18 -13 8 -25 -6 -8 -16 -14 -22 -14 -13 0 -47 30 -47
42 0 11 37 10 61 -3z m115 -47 c-10 -2 -26 3 -35 12 -15 15 -13 16 19 4 26 -9
30 -13 16 -16z m134 9 c0 -5 -7 -12 -16 -15 -14 -5 -15 -4 -4 9 14 17 20 19
20 6z m2101 -8 c13 -17 13 -17 -6 -3 -11 8 -22 16 -24 17 -2 2 0 3 6 3 6 0 17
-8 24 -17z m-2176 -18 c-16 -14 -40 -25 -52 -25 -12 0 -23 -5 -25 -12 -2 -6
-10 -8 -17 -4 -16 10 15 35 45 36 11 0 29 7 40 15 33 25 41 16 9 -10z m175
-97 c11 -38 10 -42 -15 -68 -20 -21 -36 -28 -61 -27 -19 1 -34 2 -34 4 0 2 14
22 31 46 l31 42 -41 3 c-23 2 -41 5 -41 8 0 3 11 22 25 42 14 20 25 43 25 51
0 26 67 -60 80 -101z m1495 83 c13 -1 17 -101 4 -101 -5 0 -9 6 -9 14 0 19
-61 16 -77 -4 -14 -17 -14 -16 -15 42 -1 45 14 58 62 53 14 -1 30 -3 35 -4z
m135 0 c23 -2 24 -3 7 -15 -15 -12 -15 -15 -3 -19 12 -5 13 -12 5 -37 -10 -27
-15 -30 -54 -30 -40 0 -44 2 -48 28 -12 68 -4 81 48 76 11 -1 31 -3 45 -3z
m145 -12 c5 -6 5 -13 -3 -21 -7 -7 -8 -16 -2 -23 6 -7 4 -19 -5 -32 -12 -18
-20 -20 -44 -13 -19 5 -33 4 -40 -3 -8 -8 -11 -6 -12 9 -1 10 -3 34 -5 52 -3
26 0 34 19 42 24 10 76 3 92 -11z m129 2 c3 -9 6 -32 8 -51 l3 -35 -57 -2
c-56 -1 -56 -1 -60 30 -7 64 -2 68 79 73 13 1 24 -5 27 -15z m137 2 c13 -16
12 -17 -3 -4 -10 7 -18 15 -18 17 0 8 8 3 21 -13z m-2280 -49 c12 -14 11 -16
-5 -13 -11 2 -21 10 -24 17 -5 17 13 15 29 -4z m-1154 -526 c-3 -7 -5 -2 -5
12 0 14 2 19 5 13 2 -7 2 -19 0 -25z m70 -35 c-3 -10 -5 -4 -5 12 0 17 2 24 5
18 2 -7 2 -21 0 -30z m-247 -13 c0 -5 -5 -10 -11 -10 -5 0 -7 5 -4 10 3 6 8
10 11 10 2 0 4 -4 4 -10z m131 -41 c-5 -13 -10 -19 -10 -12 -1 15 10 45 15 40
3 -2 0 -15 -5 -28z m-140 7 c5 3 9 0 9 -6 0 -7 -7 -10 -15 -6 -8 3 -15 1 -15
-4 0 -5 -10 -14 -21 -21 -17 -9 -20 -8 -14 3 14 23 40 45 43 36 2 -4 8 -6 13
-2z m39 -71 c0 -2 -10 -10 -22 -16 -21 -11 -22 -11 -9 4 13 16 31 23 31 12z
m80 -15 c0 -5 -5 -10 -11 -10 -5 0 -7 5 -4 10 3 6 8 10 11 10 2 0 4 -4 4 -10z
m0 -54 c0 -3 -4 -8 -10 -11 -5 -3 -10 -1 -10 4 0 6 5 11 10 11 6 0 10 -2 10
-4z m418 -493 c31 -25 81 -62 110 -80 28 -19 52 -37 52 -41 0 -4 -49 -31 -108
-60 -173 -85 -213 -110 -273 -168 -32 -29 -59 -54 -62 -54 -2 0 -14 12 -28 26
-14 15 -18 24 -9 22 8 -2 14 2 15 9 0 6 4 15 9 20 6 5 6 2 1 -7 -5 -9 -4 -12
1 -7 9 9 10 13 12 65 1 18 6 31 11 28 16 -10 33 21 23 41 -5 10 -10 42 -11 70
-2 50 -1 54 26 64 15 6 39 13 53 16 34 6 35 8 39 48 1 14 56 55 74 55 4 0 33
-21 65 -47z m1592 -48 c0 -26 -1 -26 -64 -2 -26 9 -27 12 -10 18 10 4 31 8 47
8 22 1 27 -3 27 -24z m384 -116 c-8 -13 -24 -1 -24 18 0 13 3 13 15 3 8 -7 12
-16 9 -21z m-1256 -11 c5 -7 13 -24 17 -37 5 -17 4 -22 -6 -19 -8 3 -14 13
-14 23 0 10 -6 20 -14 23 -10 3 -11 -2 -6 -19 7 -22 7 -22 -10 -6 -19 19 -14
47 8 47 8 0 19 -6 25 -12z m-58 -28 c0 -5 -4 -10 -10 -10 -5 0 -10 5 -10 10 0
6 5 10 10 10 6 0 10 -4 10 -10z m165 -110 c3 -5 2 -10 -3 -10 -6 0 -8 -10 -5
-22 3 -16 2 -19 -4 -10 -6 8 -17 10 -29 5 -17 -6 -17 -5 -5 10 9 12 10 17 2
17 -7 0 -9 5 -6 10 3 6 15 10 25 10 10 0 22 -4 25 -10z m142 -1033 c15 -25
161 -152 178 -154 5 -1 11 -7 13 -13 5 -14 -33 4 -43 20 -10 17 -33 11 -31 -7
2 -10 9 -18 16 -18 7 0 15 -7 17 -15 4 -13 3 -13 -6 0 -6 8 -11 11 -11 6 0 -5
-9 -1 -20 9 -22 20 -28 8 -7 -15 6 -8 1 -5 -13 7 -17 15 -30 19 -39 13 -8 -4
-23 -7 -34 -4 -13 2 -21 -4 -25 -18 -5 -21 -6 -21 -13 -2 -7 16 -8 17 -8 2 -1
-20 -21 -25 -21 -5 0 8 -4 7 -11 -3 -8 -11 -9 -3 -3 30 4 25 8 84 10 131 1 48
8 104 15 125 l13 39 8 -58 c4 -32 11 -63 15 -70z m-877 -161 c0 -49 -23 -75
-32 -38 -6 22 8 62 22 62 5 0 10 -11 10 -24z m940 -21 c-7 -8 -9 -15 -4 -15 4
0 3 -5 -4 -12 -9 -9 -9 -15 0 -27 10 -13 10 -14 -2 -4 -9 9 -17 9 -26 3 -9 -8
-11 -3 -9 20 1 17 6 34 10 38 4 4 5 0 4 -8 -2 -8 1 -16 6 -17 6 -2 10 0 10 5
0 10 15 32 22 32 3 0 0 -7 -7 -15z m33 -39 c-10 -15 -11 -29 -2 -41 4 -5 -1
-20 -11 -33 -12 -14 -20 -18 -22 -10 -3 8 -6 6 -10 -4 -9 -23 16 -17 45 10 25
24 37 20 37 -10 0 -11 5 -16 11 -13 6 4 8 13 5 21 -3 7 -1 16 5 19 5 4 6 11 3
17 -11 17 -13 59 -4 53 5 -3 6 -13 3 -22 -5 -11 -3 -14 6 -9 8 5 10 18 7 32
-4 14 -2 24 4 24 5 0 10 -13 10 -30 0 -16 -5 -30 -11 -30 -6 0 -9 -7 -6 -15 4
-8 2 -17 -2 -19 -5 -3 -6 -18 -4 -33 11 -76 8 -87 -35 -111 -94 -52 -112 -94
-119 -269 -3 -68 -8 -123 -12 -123 -3 0 -20 -12 -37 -28 -23 -20 -34 -44 -47
-97 -10 -38 -18 -85 -19 -103 -4 -56 -13 -44 -11 13 1 52 -5 60 -33 42 -7 -4
-18 1 -25 11 -12 15 -12 16 1 7 9 -5 7 -2 -3 8 -11 9 -16 17 -11 17 4 0 -5 14
-22 32 -16 18 -20 26 -9 18 18 -14 19 -14 6 3 -13 17 -47 25 -37 9 3 -5 -1 -9
-8 -9 -13 0 -16 9 -16 52 0 39 3 54 9 53 18 -2 24 3 13 11 -11 7 -11 9 0 14
10 3 14 -3 14 -18 0 -13 -5 -23 -10 -22 -6 1 -11 -16 -12 -38 -1 -22 0 -33 3
-25 3 8 11 21 17 29 8 11 8 13 -1 7 -8 -4 -13 -1 -13 9 0 9 4 14 9 11 5 -3 14
1 20 8 8 10 9 16 2 21 -7 4 -5 15 6 31 9 14 11 24 5 22 -5 -2 -10 2 -10 7 0 6
5 9 11 7 6 -2 6 2 -1 11 -10 11 -9 17 3 27 8 7 15 18 14 24 0 6 -3 5 -6 -3 -5
-11 -7 -11 -14 0 -7 12 -9 11 -9 -1 0 -13 -1 -13 -10 0 -7 11 -8 4 -6 -22 3
-26 0 -36 -8 -31 -6 3 -3 -3 7 -14 19 -22 24 -44 5 -25 -7 7 -17 12 -23 12 -5
0 -3 -5 5 -10 9 -6 10 -10 3 -10 -17 0 -25 17 -13 25 8 5 5 14 -7 27 -9 11
-12 18 -6 16 6 -2 11 2 11 7 0 6 -4 9 -10 7 -5 -1 -7 2 -3 8 3 6 11 7 17 4 7
-5 9 -2 5 8 -4 11 0 15 11 13 9 -1 20 3 24 9 5 8 8 7 8 -2 0 -7 5 -10 10 -7 8
5 7 12 -2 23 -11 14 -9 14 8 -1 11 -9 23 -14 26 -11 3 3 9 0 14 -7 4 -8 3 -10
-4 -5 -17 10 -15 1 2 -13 12 -10 14 -8 12 13 -2 15 1 26 5 26 9 0 14 -24 9
-45 -1 -5 8 -1 19 9 11 10 17 24 14 34 -4 9 -2 13 5 8 6 -3 13 -2 17 3 3 6 -4
15 -16 21 -17 10 -20 9 -14 -2 3 -7 1 -6 -7 3 -55 65 -80 92 -75 83 4 -6 0
-11 -8 -11 -10 0 -9 7 6 25 14 18 16 28 8 38 -11 14 4 54 20 54 5 0 14 13 21
30 7 16 25 43 41 60 16 16 29 41 29 54 0 14 4 27 9 30 5 4 5 -10 1 -32 l-9
-37 19 23 19 22 7 -22 c4 -13 7 -27 6 -31 -1 -5 2 -6 7 -2 7 4 7 15 1 31 -6
14 -6 23 -1 20 5 -4 12 0 15 6 3 7 3 3 1 -9 -6 -24 9 -40 21 -22 5 8 3 9 -6 4
-9 -6 -11 -4 -5 4 5 9 10 10 18 2 7 -7 15 -7 25 2 13 10 14 9 1 -10 -9 -16
-16 -19 -21 -10 -5 7 -8 8 -8 1 0 -18 13 -24 27 -13 7 6 13 8 13 4 0 -4 7 -2
15 5 12 10 13 16 4 26 -6 8 -8 14 -4 14 4 0 2 7 -5 16 -8 8 -9 14 -4 13 21 -4
26 2 13 19 -13 15 -12 16 3 3 10 -7 15 -18 11 -25z m27 -2 c-13 -33 -13 -37 2
-28 7 5 8 3 3 -5 -13 -23 -26 4 -16 32 6 15 13 27 16 27 2 0 0 -12 -5 -26z
m-312 -238 c-2 -1 -12 -8 -22 -16 -18 -14 -19 -14 -7 8 7 12 17 20 22 16 6 -3
9 -7 7 -8z m51 -119 c-2 -3 -15 10 -28 27 l-24 31 28 -27 c16 -15 27 -29 24
-31z m24 -42 c4 -8 3 -16 -1 -19 -4 -3 -9 4 -9 15 -2 23 3 25 10 4z m1112
-365 c3 -5 17 -10 31 -10 13 0 24 5 24 10 0 6 9 10 20 10 11 0 20 -4 20 -10 0
-5 13 -10 28 -10 34 0 43 -7 35 -26 -3 -8 -18 -14 -33 -14 -16 0 -32 -5 -35
-10 -4 -6 -11 -7 -17 -4 -6 4 -9 1 -6 -7 3 -12 50 -41 81 -52 5 -1 5 -10 2
-20 -5 -12 -14 -15 -31 -11 -23 6 -24 4 -24 -40 0 -42 -2 -46 -24 -46 -23 0
-24 2 -21 64 2 50 0 66 -12 70 -25 10 -38 -7 -39 -53 -1 -35 -7 -49 -28 -68
-22 -18 -30 -20 -40 -10 -11 10 -10 16 5 36 24 30 25 55 3 47 -10 -4 -22 1
-29 11 -11 15 -8 19 25 34 41 19 60 39 36 39 -9 0 -16 5 -16 10 0 6 -13 10
-30 10 -23 0 -30 4 -30 20 0 16 7 20 30 20 17 0 30 5 30 10 0 6 9 10 19 10 11
0 23 -4 26 -10z m405 -68 c6 -85 4 -92 -21 -92 -12 0 -19 -7 -19 -20 0 -24 17
-26 40 -5 15 14 19 14 29 1 7 -9 10 -24 6 -36 -6 -19 -13 -21 -63 -18 l-57 3
-3 38 -3 39 -39 -42 c-27 -30 -45 -41 -61 -38 -33 5 -33 21 1 40 35 20 38 34
10 41 -18 5 -20 14 -20 81 l0 75 78 3 c127 5 116 11 122 -70z m-1554 40 c-17
-16 -18 -16 -5 5 7 12 15 20 18 17 3 -2 -3 -12 -13 -22z m1874 8 c0 -17 -7
-20 -53 -20 -30 0 -57 -3 -60 -6 -4 -4 14 -22 38 -41 25 -19 45 -36 45 -38 0
-2 -3 -10 -6 -19 -8 -22 -27 -20 -49 4 -10 11 -21 20 -24 20 -3 0 -4 -27 -3
-60 l4 -60 -29 0 -28 0 0 97 0 98 -47 3 c-40 3 -48 6 -48 23 0 18 8 19 130 19
123 0 130 -1 130 -20z m180 -8 c0 -5 -5 -13 -12 -20 -9 -9 0 -12 40 -12 67 0
75 -16 31 -68 -20 -24 -33 -51 -34 -68 0 -38 -13 -36 -60 4 -36 32 -37 35 -20
50 13 13 18 14 22 4 4 -10 9 -9 24 4 27 24 24 30 -12 28 -20 -1 -39 -12 -56
-33 -27 -33 -39 -37 -62 -22 -12 8 -7 18 26 54 23 25 49 59 57 76 14 27 20 30
36 21 11 -6 20 -14 20 -18z m-3450 -106 c0 -64 -4 -87 -16 -97 -21 -18 -48 0
-52 35 -4 31 15 36 20 4 2 -12 9 -23 16 -26 9 -3 12 18 12 82 0 51 4 86 10 86
6 0 10 -35 10 -84z m50 3 c0 -60 3 -80 13 -77 8 3 13 31 15 81 4 104 22 98 22
-7 0 -64 -4 -87 -16 -97 -11 -9 -20 -10 -32 -2 -13 8 -18 29 -20 97 -2 55 1
86 8 86 6 0 10 -32 10 -81z m115 44 c4 -21 8 -45 9 -53 3 -14 9 5 21 65 4 17
12 25 25 25 18 0 20 -7 20 -89 0 -86 -12 -121 -30 -91 -5 9 -9 9 -14 1 -11
-18 -26 -13 -26 8 0 11 -4 23 -10 26 -6 4 -10 -5 -10 -19 0 -17 -6 -26 -15
-26 -14 0 -16 15 -14 95 1 85 4 95 20 95 13 0 20 -10 24 -37z m171 13 c9 -37
1 -60 -23 -71 -16 -7 -23 -19 -25 -49 -2 -22 -9 -41 -15 -44 -10 -3 -13 20
-13 92 l0 96 35 0 c28 0 36 -4 41 -24z m202 -13 c2 -25 -1 -33 -12 -33 -9 0
-16 8 -16 19 0 11 -4 23 -10 26 -6 4 -10 -22 -10 -70 0 -48 4 -74 10 -70 6 3
10 15 10 26 0 11 7 19 16 19 21 0 15 -49 -8 -64 -34 -21 -53 4 -56 75 -5 94 2
111 41 107 28 -3 32 -7 35 -35z m87 27 c4 -6 9 -43 11 -83 6 -83 -6 -104 -51
-93 -23 6 -25 11 -26 69 -1 67 0 85 6 105 5 14 51 16 60 2z m77 -42 l14 -53 8
53 c6 42 12 52 27 52 17 0 19 -8 19 -95 0 -78 -3 -95 -15 -95 -10 0 -16 11
-17 33 l-1 32 -4 -32 c-6 -45 -29 -42 -41 5 l-10 37 -1 -37 c-1 -23 -6 -38
-13 -38 -10 0 -13 26 -13 95 0 81 2 95 16 95 11 0 21 -17 31 -52z m118 -43 c0
-78 -3 -95 -15 -95 -12 0 -15 17 -15 95 0 78 3 95 15 95 12 0 15 -17 15 -95z
m94 79 c11 -28 6 -54 -9 -54 -8 0 -15 9 -15 20 0 11 -4 20 -10 20 -6 0 -10
-29 -10 -66 0 -41 4 -63 10 -59 6 3 10 13 10 21 0 8 7 14 15 14 21 0 19 -52
-3 -66 -10 -7 -26 -8 -40 -3 -20 8 -22 15 -22 92 0 46 3 87 7 90 13 13 61 7
67 -9z m104 -21 c2 -25 -1 -33 -13 -33 -8 0 -20 10 -25 23 -8 20 -9 20 -9 2
-1 -11 10 -32 24 -47 33 -36 33 -80 0 -98 -22 -12 -27 -11 -45 5 -27 24 -27
65 0 65 15 0 20 -7 21 -27 l2 -28 4 26 c3 19 -3 34 -21 53 -26 25 -32 50 -20
81 5 12 17 15 43 13 33 -3 36 -6 39 -35z m363 -30 c13 -16 12 -17 -3 -4 -17
13 -22 21 -14 21 2 0 10 -8 17 -17z m-268 -176 c4 3 7 4 7 0 0 -18 -21 -14
-30 5 -10 21 -10 21 3 6 8 -10 17 -15 20 -11z"/>
<path d="M3292 6163 c-4 -10 -7 -98 -7 -196 l0 -179 30 -24 c17 -13 40 -24 53
-24 17 0 22 -6 22 -27 0 -19 -16 -41 -59 -82 -74 -69 -77 -80 -91 -323 -12
-190 -9 -228 15 -228 17 0 24 25 40 150 40 304 47 324 130 377 46 29 49 35 46
89 -2 31 13 53 27 40 3 -4 6 -24 5 -45 -2 -43 23 -74 68 -85 15 -3 37 -22 52
-43 23 -35 26 -51 31 -173 11 -231 35 -335 68 -302 10 10 13 53 11 180 -2 256
-6 278 -56 333 -23 26 -56 54 -74 63 -34 17 -58 50 -48 66 3 6 18 10 32 10 34
0 79 28 92 57 12 26 13 183 3 273 -6 50 -9 55 -31 55 -19 0 -27 -7 -33 -32
l-9 -33 -119 0 c-77 0 -121 4 -126 11 -4 6 -12 32 -19 58 -12 49 -39 67 -53
34z m312 -189 c3 -9 6 -42 6 -74 0 -78 -9 -84 -125 -84 -62 0 -99 5 -109 13
-20 17 -23 126 -3 138 10 7 92 16 193 21 21 1 34 -3 38 -14z"/>
<path d="M3530 5959 c-14 -6 -47 -8 -75 -5 -68 7 -76 1 -68 -61 l6 -51 51 -5
c28 -3 71 -3 96 1 l45 7 0 60 c0 65 -8 73 -55 54z"/>
<path d="M2965 5960 c-9 -15 5 -512 16 -531 23 -44 162 -48 215 -7 24 20 25
22 25 172 0 83 1 178 2 211 2 56 1 60 -26 73 -34 17 -46 8 -56 -40 -7 -31 -9
-33 -51 -33 l-45 0 -3 70 c-2 51 -7 73 -19 83 -20 15 -49 16 -58 2z m164 -254
c8 -9 11 -50 9 -117 l-3 -104 -27 -3 c-20 -2 -35 4 -52 23 -23 25 -24 31 -19
108 3 45 10 88 15 95 14 16 63 15 77 -2z"/>
<path d="M3065 5619 c-7 -83 -1 -103 34 -111 11 -2 15 14 18 72 5 92 -1 120
-26 120 -16 0 -20 -11 -26 -81z"/>
<path d="M3242 5738 c-6 -39 -7 -79 -3 -87 5 -9 6 -30 4 -48 -5 -31 -4 -30 61
34 62 62 72 83 41 83 -22 0 -75 50 -75 71 0 10 -4 19 -9 19 -5 0 -13 -32 -19
-72z"/>
<path d="M5749 6161 l-24 -20 23 -43 c12 -24 38 -62 57 -83 30 -36 35 -38 41
-20 10 24 -21 143 -43 167 -20 23 -25 22 -54 -1z"/>
<path d="M5898 6164 c-34 -18 -34 -18 -5 -74 46 -90 74 -119 91 -92 9 15 -25
147 -42 164 -15 15 -20 15 -44 2z"/>
<path d="M6039 6162 c-22 -18 -22 -22 -10 -58 13 -39 73 -114 91 -114 6 0 10
12 10 28 -1 36 -42 155 -56 159 -6 2 -22 -5 -35 -15z"/>
<path d="M6248 6164 c-14 -14 -15 -35 -11 -150 l6 -133 -34 -3 c-23 -2 -35 -9
-37 -22 -5 -24 9 -37 49 -45 31 -6 33 -10 45 -70 7 -35 11 -68 8 -72 -2 -5
-21 -11 -40 -15 -46 -9 -76 -50 -89 -122 l-10 -57 -70 3 c-39 2 -71 4 -71 5
-1 1 -5 16 -8 33 -8 37 14 66 48 63 48 -3 68 2 91 26 24 23 25 28 25 174 0
194 13 184 -213 179 -120 -2 -168 -7 -180 -17 -14 -11 -17 -36 -17 -156 0
-139 1 -144 25 -174 23 -26 34 -30 83 -33 54 -3 57 -4 62 -33 13 -67 -4 -75
-146 -75 -76 0 -84 -2 -84 -19 0 -25 28 -34 110 -37 36 -1 77 -2 91 -3 l26 -1
6 -151 c7 -145 18 -202 38 -182 16 16 29 122 29 231 l0 102 80 0 80 0 0 -44
c0 -45 26 -212 36 -228 3 -5 11 -4 19 2 16 14 24 93 26 265 1 77 6 148 11 158
5 9 19 17 33 17 24 0 35 -20 50 -98 13 -63 61 -197 93 -259 38 -75 114 -157
119 -131 3 10 -7 37 -21 61 -14 24 -26 50 -26 58 0 8 -11 37 -25 64 -13 28
-25 55 -25 61 0 6 -13 58 -30 115 -38 131 -38 139 -1 139 60 0 123 13 128 27
9 23 -16 33 -83 33 -74 0 -93 13 -105 71 -16 87 -17 86 59 93 85 9 102 14 102
31 0 22 -20 29 -100 35 l-75 5 -7 127 c-9 160 -26 196 -70 152z m-340 -316
c-3 -31 -6 -33 -45 -36 -39 -3 -43 -1 -43 20 0 33 18 48 58 48 32 0 33 -2 30
-32z m155 11 c17 -28 1 -49 -38 -49 -33 0 -35 2 -35 36 0 34 1 35 31 32 18 -2
37 -10 42 -19z m5 -152 c4 -37 -13 -57 -49 -57 -27 0 -29 3 -29 39 0 42 10 51
50 48 19 -2 26 -8 28 -30z m-160 -25 l3 -43 -33 3 c-23 2 -37 11 -47 29 -22
40 -9 61 36 57 37 -3 38 -4 41 -46z"/>
<path d="M5850 5845 c-11 -13 -8 -15 13 -15 19 0 25 4 21 15 -4 8 -10 15 -14
15 -4 0 -13 -7 -20 -15z"/>
<path d="M6017 5854 c-8 -8 1 -24 14 -24 5 0 9 7 9 15 0 15 -12 20 -23 9z"/>
<path d="M6027 5713 c-10 -9 -9 -43 2 -43 13 0 23 32 13 42 -5 5 -11 5 -15 1z"/>
<path d="M5852 5688 c2 -12 11 -24 21 -26 14 -3 18 1 15 20 -2 12 -11 24 -21
26 -14 3 -18 -1 -15 -20z"/>
<path d="M5863 6067 c4 -10 7 -32 7 -48 0 -24 4 -29 25 -29 31 0 31 1 -1 47
-31 46 -39 54 -31 30z"/>
<path d="M6177 5783 c-3 -5 -5 -36 -5 -69 l0 -62 27 14 c14 8 32 14 39 14 11
0 9 55 -4 98 -4 13 -50 17 -57 5z"/>
<path d="M6100 5560 c-8 -5 -32 -10 -53 -10 -34 0 -38 -3 -35 -22 3 -20 10
-23 56 -26 l52 -3 0 35 c0 40 1 39 -20 26z"/>
<path d="M6415 6160 c-18 -29 27 -160 54 -160 15 0 23 80 14 125 -7 33 -13 41
-35 43 -14 2 -29 -2 -33 -8z"/>
<path d="M3397 5023 c-4 -3 -7 -11 -7 -17 0 -6 5 -5 12 2 6 6 9 14 7 17 -3 3
-9 2 -12 -2z"/>
<path d="M3566 5021 c-4 -7 -5 -15 -2 -18 9 -9 19 4 14 18 -4 11 -6 11 -12 0z"/>
<path d="M3590 5016 c0 -9 5 -16 10 -16 6 0 10 4 10 9 0 6 -4 13 -10 16 -5 3
-10 -1 -10 -9z"/>
<path d="M3083 5000 c1 -11 5 -20 9 -20 11 0 10 28 -1 35 -6 3 -9 -4 -8 -15z"/>
<path d="M3243 4995 c0 -21 2 -23 13 -14 11 9 11 15 3 25 -15 19 -16 18 -16
-11z"/>
<path d="M3471 5010 c0 -8 4 -22 9 -30 12 -18 12 -2 0 25 -6 13 -9 15 -9 5z"/>
<path d="M3660 5001 c0 -9 30 -24 36 -18 2 1 -6 8 -16 15 -11 7 -20 8 -20 3z"/>
<path d="M3010 4990 c-9 -6 -10 -10 -3 -10 6 0 15 5 18 10 8 12 4 12 -15 0z"/>
<path d="M3330 4990 c-9 -6 -10 -10 -3 -10 6 0 15 5 18 10 8 12 4 12 -15 0z"/>
<path d="M3721 4729 c-1 -8 6 -24 15 -35 15 -19 15 -19 6 1 -5 11 -12 27 -15
35 -5 13 -6 13 -6 -1z"/>
<path d="M3600 4596 c0 -2 8 -10 18 -17 15 -13 16 -12 3 4 -13 16 -21 21 -21
13z"/>
<path d="M3230 4395 c7 -8 20 -15 29 -15 13 1 13 3 -3 15 -26 19 -42 19 -26 0z"/>
<path d="M4050 4366 c0 -2 7 -9 15 -16 13 -11 14 -10 9 4 -5 14 -24 23 -24 12z"/>
<path d="M3285 4350 c3 -5 8 -10 11 -10 2 0 4 5 4 10 0 6 -5 10 -11 10 -5 0
-7 -4 -4 -10z"/>
<path d="M3395 4260 c4 -6 -7 -13 -24 -16 -17 -4 -28 -10 -26 -15 6 -9 45 -8
45 2 0 3 12 5 28 2 23 -3 24 -2 7 6 l-20 10 20 1 20 1 -20 9 c-28 12 -37 12
-30 0z"/>
<path d="M3575 4226 c-38 -39 -85 -101 -85 -112 0 -2 10 1 23 7 l22 12 -20
-23 c-17 -20 -18 -23 -2 -17 9 4 17 2 17 -3 0 -16 17 -12 24 6 4 10 2 13 -6 8
-7 -5 -8 -3 -2 7 5 8 9 19 10 24 0 6 2 15 2 21 1 5 10 19 20 30 17 19 45 75
40 79 -2 1 -21 -16 -43 -39z"/>
<path d="M3540 4253 c0 -6 -16 -30 -35 -53 -19 -23 -35 -47 -35 -52 0 -6 11 4
25 23 13 19 32 44 41 57 9 12 14 25 10 29 -3 3 -6 2 -6 -4z"/>
<path d="M3457 4203 c-4 -3 -30 -7 -59 -9 -103 -5 -95 -3 -76 -18 14 -10 28
-10 80 2 67 16 74 19 66 27 -2 3 -8 2 -11 -2z"/>
<path d="M3230 4152 c0 -22 142 -40 185 -23 15 6 7 10 -33 14 -28 4 -74 10
-102 13 -32 4 -50 3 -50 -4z"/>
<path d="M3030 4139 c0 -5 5 -7 10 -4 6 3 10 8 10 11 0 2 -4 4 -10 4 -5 0 -10
-5 -10 -11z"/>
<path d="M3060 4138 c0 -11 12 -10 30 2 12 7 10 9 -8 7 -12 0 -22 -5 -22 -9z"/>
<path d="M3626 4114 c-9 -24 -7 -77 4 -94 7 -11 10 3 9 48 -1 34 -3 62 -4 62
-2 0 -6 -7 -9 -16z"/>
<path d="M3084 4109 c-4 -7 -3 -9 4 -5 6 3 13 2 17 -4 3 -5 21 -9 38 -9 l32 2
-30 4 c-16 3 -35 9 -42 14 -7 7 -14 6 -19 -2z"/>
<path d="M3672 4048 c-1 -36 -5 -75 -8 -85 -3 -10 8 2 24 27 17 25 34 59 37
75 6 29 5 29 -19 -9 l-25 -39 -4 49 c-3 43 -4 41 -5 -18z"/>
<path d="M3792 4077 c-7 -16 -12 -35 -12 -44 0 -12 -3 -13 -14 -3 -8 6 -17 19
-19 28 -2 9 -2 -1 1 -23 2 -22 10 -48 17 -58 11 -16 13 -16 19 -2 3 9 6 25 6
35 0 10 5 20 11 22 6 2 9 19 7 38 l-4 35 -12 -28z"/>
<path d="M3390 4066 c0 -10 35 -42 53 -49 28 -11 9 -32 -28 -32 -35 0 -50 -17
-19 -23 9 -2 14 1 10 6 -3 6 2 8 13 5 13 -3 21 -16 23 -37 l4 -31 10 25 c23
52 25 90 6 97 -9 3 -29 15 -44 25 -16 11 -28 17 -28 14z"/>
<path d="M3845 4028 c-8 -26 -10 -96 -3 -92 5 3 8 21 8 40 0 40 15 45 23 7 6
-30 -10 -73 -27 -73 -7 0 -7 -3 -1 -8 6 -4 19 -24 29 -44 11 -21 22 -38 25
-38 10 0 4 123 -8 151 -5 15 -7 36 -4 48 4 17 1 21 -16 21 -12 0 -23 -6 -26
-12z"/>
<path d="M3170 4000 c0 -5 7 -7 15 -4 8 4 15 8 15 10 0 2 -7 4 -15 4 -8 0 -15
-4 -15 -10z"/>
<path d="M3553 3987 c-20 -25 -63 -106 -62 -114 1 -4 -1 -32 -6 -61 -8 -55
-21 -59 -27 -8 -2 16 -9 31 -16 34 -9 3 -11 -3 -6 -22 4 -16 1 -35 -8 -49 -8
-12 -13 -33 -11 -46 5 -38 10 -35 17 9 7 44 26 55 26 15 0 -14 3 -25 8 -25 9
0 52 129 52 157 0 23 35 94 52 104 7 4 7 9 0 13 -5 3 -14 0 -19 -7z"/>
<path d="M3712 3973 c-6 -16 -16 -53 -21 -83 -5 -30 -13 -63 -16 -72 -12 -31
3 -19 34 27 32 48 47 101 36 134 -9 29 -20 26 -33 -6z"/>
<path d="M4240 3990 c-12 -8 -9 -10 12 -10 15 0 30 -4 33 -10 3 -5 18 -10 33
-10 20 0 32 -9 45 -31 22 -40 22 -56 -2 -35 -18 16 -18 15 -17 -21 1 -37 0
-38 -36 -41 l-37 -3 6 -52 c6 -48 30 -87 54 -87 12 0 -2 40 -15 40 -6 0 -3 5
6 11 10 5 21 28 24 49 4 22 10 40 15 40 4 0 11 9 14 20 3 11 10 20 15 20 5 0
0 -25 -11 -57 -21 -63 -24 -83 -9 -83 14 0 29 34 39 86 16 82 -26 157 -92 166
-18 3 -39 8 -47 11 -8 4 -22 2 -30 -3z"/>
<path d="M3799 3988 c0 -2 -2 -12 -4 -22 -8 -42 -17 -71 -24 -76 -15 -11 -41
-60 -41 -77 0 -11 9 -3 25 22 l24 40 1 -32 c0 -49 20 -40 21 10 0 23 3 63 5
90 3 26 2 47 -1 47 -3 0 -5 -1 -6 -2z"/>
<path d="M3910 3974 c0 -5 7 -19 15 -30 8 -10 15 -14 15 -8 0 5 -7 19 -15 30
-8 10 -15 14 -15 8z"/>
<path d="M4220 3933 c0 -32 12 -43 25 -23 3 6 1 10 -4 10 -6 0 -11 5 -11 11 0
5 5 7 10 4 6 -3 10 -1 10 5 0 6 5 8 11 5 6 -4 8 -14 5 -22 -3 -8 -1 -11 4 -8
22 14 10 43 -20 47 -28 4 -30 3 -30 -29z"/>
<path d="M3617 3954 c-3 -6 -9 -46 -12 -90 -4 -43 -11 -86 -16 -96 -11 -21
-11 -28 0 -28 5 0 15 23 22 51 12 45 14 48 22 27 7 -20 10 -21 17 -7 11 20 26
137 16 128 -4 -4 -9 -17 -11 -29 -5 -26 -28 -45 -34 -29 -2 6 1 14 7 18 7 4 9
18 4 36 -5 16 -11 25 -15 19z"/>
<path d="M4287 3910 c-9 -11 -28 -20 -42 -20 -16 0 -25 -6 -25 -15 0 -11 9
-14 32 -13 33 3 68 27 61 41 -2 4 1 7 6 7 6 0 11 5 11 10 0 17 -25 11 -43 -10z"/>
<path d="M3920 3872 l0 -37 15 29 c18 35 18 33 0 40 -12 4 -15 -3 -15 -32z"/>
<path d="M3430 3870 c0 -11 2 -20 4 -20 2 0 6 9 9 20 3 11 1 20 -4 20 -5 0 -9
-9 -9 -20z"/>
<path d="M3536 3845 c-4 -27 -9 -63 -11 -78 -3 -17 -1 -26 5 -22 6 3 10 22 10
41 0 21 4 33 10 29 11 -7 12 18 1 55 -7 21 -9 18 -15 -25z"/>
<path d="M3833 3849 c-7 -20 -13 -44 -13 -55 1 -15 4 -13 16 9 8 15 14 40 12
54 -3 26 -3 25 -15 -8z"/>
<path d="M3560 3791 c0 -5 5 -13 10 -16 6 -3 10 -2 10 4 0 5 -4 13 -10 16 -5
3 -10 2 -10 -4z"/>
<path d="M3790 3791 c0 -6 4 -13 10 -16 6 -3 7 1 4 9 -7 18 -14 21 -14 7z"/>
<path d="M3846 3712 c-2 -4 6 -12 19 -18 20 -10 22 -9 17 4 -3 9 -1 13 4 9 6
-3 16 -2 24 4 11 6 4 9 -22 9 -20 0 -39 -3 -42 -8z"/>
<path d="M3705 3659 c-11 -6 -35 -30 -53 -55 -18 -24 -37 -43 -43 -41 -16 3
-33 -28 -25 -48 5 -14 11 -11 32 21 15 22 30 41 33 44 11 7 84 90 80 89 -2 0
-13 -5 -24 -10z"/>
<path d="M4036 3618 c3 -5 10 -6 15 -3 13 9 11 12 -6 12 -8 0 -12 -4 -9 -9z"/>
<path d="M3863 3544 c-35 -13 -78 -34 -97 -46 -35 -23 -75 -78 -57 -78 6 0 8
-6 5 -14 -4 -10 0 -14 13 -12 12 2 19 13 21 32 4 28 18 54 31 54 3 0 11 -10
16 -22 11 -26 60 -37 79 -18 8 8 7 10 -6 5 -21 -8 -58 11 -58 30 0 18 51 51
103 67 20 6 37 15 37 20 0 13 -20 9 -87 -18z"/>
<path d="M3838 3473 c7 -3 16 -2 19 1 4 3 -2 6 -13 5 -11 0 -14 -3 -6 -6z"/>
<path d="M3962 3445 c0 -16 2 -22 5 -12 2 9 2 23 0 30 -3 6 -5 -1 -5 -18z"/>
<path d="M4041 3444 c0 -11 3 -14 6 -6 3 7 2 16 -1 19 -3 4 -6 -2 -5 -13z"/>
<path d="M4411 3414 c0 -11 3 -14 6 -6 3 7 2 16 -1 19 -3 4 -6 -2 -5 -13z"/>
<path d="M4026 3403 c-6 -14 -5 -15 5 -6 7 7 10 15 7 18 -3 3 -9 -2 -12 -12z"/>
<path d="M3940 3373 c0 -9 -56 -44 -85 -54 -17 -6 -18 -7 -2 -8 10 -1 30 5 45
13 32 17 70 56 54 56 -7 0 -12 -3 -12 -7z"/>
<path d="M3996 3364 c-9 -8 -16 -20 -16 -26 0 -6 1 -9 3 -7 1 2 11 14 21 27
22 25 16 30 -8 6z"/>
<path d="M4086 3339 c-14 -17 -26 -37 -26 -44 0 -7 -3 -22 -7 -32 -6 -17 -5
-17 13 -2 10 9 24 14 31 12 19 -7 45 41 37 71 -8 34 -17 33 -48 -5z"/>
<path d="M4115 3249 c-24 -45 -13 -59 13 -17 24 39 27 48 12 48 -5 0 -17 -14
-25 -31z"/>
<path d="M3860 2980 c-8 -5 -11 -12 -8 -15 4 -4 17 0 30 9 24 17 5 23 -22 6z"/>
<path d="M3750 2954 c0 -4 11 -17 26 -30 25 -24 64 -32 64 -14 0 6 6 10 14 10
7 0 19 7 26 15 12 14 8 15 -30 9 -31 -5 -41 -4 -36 4 5 8 -4 12 -28 12 -20 0
-36 -3 -36 -6z"/>
<path d="M3825 2891 l-30 -7 32 -11 c29 -10 32 -10 30 8 -1 10 -1 18 -2 18 0
-1 -13 -4 -30 -8z"/>
<path d="M6232 4210 c0 -14 2 -19 5 -12 2 6 2 18 0 25 -3 6 -5 1 -5 -13z"/>
<path d="M6171 4204 c0 -11 3 -14 6 -6 3 7 2 16 -1 19 -3 4 -6 -2 -5 -13z"/>
<path d="M3285 2609 c-4 -6 -5 -12 -2 -15 2 -3 7 2 10 11 7 17 1 20 -8 4z"/>
<path d="M4492 1339 c-7 -12 -11 -24 -8 -27 3 -3 6 0 6 7 0 7 5 9 10 6 6 -3
10 3 10 14 0 26 -2 26 -18 0z"/>
<path d="M4650 1318 c-12 -22 -12 -22 6 -6 10 10 15 20 12 24 -4 3 -12 -5 -18
-18z"/>
<path d="M4396 938 c3 -5 10 -6 15 -3 13 9 11 12 -6 12 -8 0 -12 -4 -9 -9z"/>
<path d="M5828 523 c18 -2 45 -2 60 0 15 2 0 4 -33 4 -33 0 -45 -2 -27 -4z"/>
<path d="M3288 552 c-6 -22 1 -44 13 -36 12 7 12 41 0 48 -5 3 -11 -2 -13 -12z"/>
<path d="M3590 500 c0 -45 4 -69 10 -65 6 3 10 33 10 65 0 32 -4 62 -10 65 -6
4 -10 -20 -10 -65z"/>
<path d="M2260 6385 c0 -60 3 -75 15 -75 12 0 15 15 15 75 0 60 -3 75 -15 75
-12 0 -15 -15 -15 -75z"/>
<path d="M2612 3626 c2 -1520 0 -2762 -4 -2759 -5 2 -8 -104 -8 -236 0 -132 4
-242 8 -245 17 -10 22 739 22 3346 0 1771 -3 2658 -10 2658 -7 0 -9 -920 -8
-2764z"/>
<path d="M3683 6333 c527 -2 1387 -2 1910 0 524 1 93 2 -958 2 -1050 0 -1479
-1 -952 -2z"/>
<path d="M4896 6275 c4 -8 10 -12 15 -9 14 8 10 24 -6 24 -9 0 -12 -6 -9 -15z"/>
<path d="M4369 6163 c-16 -40 -23 -98 -15 -126 7 -28 43 -42 63 -25 28 23 5
178 -27 178 -6 0 -15 -12 -21 -27z"/>
<path d="M5118 6168 c-2 -7 -4 -168 -3 -358 1 -251 4 -351 13 -367 24 -44 56
-51 235 -52 143 -2 172 1 197 16 16 9 32 24 36 32 12 30 16 648 4 670 -16 31
-34 26 -53 -14 l-17 -35 -157 0 c-87 0 -163 4 -169 8 -6 4 -15 23 -19 42 -11
55 -55 92 -67 58z m395 -210 c19 -32 17 -449 -2 -472 -11 -13 -37 -16 -148
-16 -74 0 -143 5 -153 10 -18 10 -19 25 -20 242 0 157 3 235 11 244 9 11 46
14 155 14 138 0 144 -1 157 -22z"/>
<path d="M5220 5933 c0 -26 1 -26 14 -7 13 17 27 19 119 19 91 0 108 -3 127
-20 l22 -20 -3 25 -4 25 -137 3 -138 3 0 -28z"/>
<path d="M5282 5922 c-46 -7 -53 -37 -50 -202 l3 -152 28 -24 c23 -19 39 -24
87 -24 71 0 105 14 119 49 12 34 9 327 -4 339 -11 10 -146 21 -183 14z m106
-85 c17 -19 18 -212 2 -232 -17 -20 -54 -19 -76 2 -14 14 -16 32 -12 115 3 57
10 104 18 113 15 18 54 20 68 2z"/>
<path d="M5336 5799 c-3 -17 -6 -64 -6 -104 0 -56 4 -74 15 -79 25 -9 34 32
28 127 -4 59 -10 87 -18 87 -7 0 -15 -14 -19 -31z"/>
<path d="M5491 5774 c0 -11 3 -14 6 -6 3 7 2 16 -1 19 -3 4 -6 -2 -5 -13z"/>
<path d="M5492 5710 c0 -14 2 -19 5 -12 2 6 2 18 0 25 -3 6 -5 1 -5 -13z"/>
<path d="M5491 5562 c0 -7 -16 -26 -33 -43 l-32 -29 32 0 c36 0 46 14 39 57
-2 15 -5 22 -6 15z"/>
<path d="M5215 5548 c-11 -27 0 -45 29 -50 28 -6 36 9 10 19 -9 3 -19 15 -24
27 -7 19 -9 19 -15 4z"/>
<path d="M3982 6153 c-5 -10 -12 -37 -16 -59 -11 -78 -90 -178 -154 -198 -43
-14 -18 -31 39 -28 76 4 111 26 149 91 37 65 59 173 40 196 -17 20 -47 19 -58
-2z"/>
<path d="M2260 6085 c0 -60 3 -75 15 -75 12 0 15 15 15 75 0 60 -3 75 -15 75
-12 0 -15 -15 -15 -75z"/>
<path d="M4493 6120 c-26 -11 -30 -42 -8 -60 15 -13 132 -8 169 6 19 7 21 28
4 41 -18 15 -139 23 -165 13z"/>
<path d="M4460 6021 c0 -11 4 -23 10 -26 6 -4 7 1 3 11 -5 13 -3 15 8 9 12 -8
12 -6 0 8 -17 22 -21 21 -21 -2z"/>
<path d="M4578 6027 c-43 -6 -78 -13 -78 -16 0 -14 146 5 156 20 3 5 4 8 2 7
-2 0 -38 -6 -80 -11z"/>
<path d="M4860 5996 c-15 -29 -115 -92 -145 -91 -11 0 -20 5 -20 12 0 7 -5 17
-11 23 -8 8 -12 -2 -12 -38 -1 -40 3 -53 21 -68 12 -10 17 -12 10 -5 -9 10 -9
17 0 26 9 9 15 8 27 -8 9 -10 31 -20 50 -22 27 -2 34 -7 32 -20 -2 -9 -1 -24
2 -32 5 -12 16 -7 50 23 24 22 58 51 76 66 29 25 31 30 28 90 l-3 63 -46 3
c-40 3 -47 0 -59 -22z"/>
<path d="M3987 5876 c-8 -8 -17 -34 -21 -57 -14 -87 -42 -133 -111 -179 -36
-23 -62 -46 -59 -51 8 -13 53 -10 97 5 l37 14 0 -254 c0 -220 2 -255 15 -261
9 -3 19 -3 22 1 14 13 24 139 28 354 4 168 8 230 19 250 17 31 36 109 36 146
0 15 -8 30 -19 36 -25 13 -27 13 -44 -4z"/>
<path d="M4078 5828 c-3 -29 -9 -62 -14 -73 -7 -18 -6 -18 9 -6 10 8 31 12 52
9 l35 -4 0 58 c0 49 -3 58 -17 58 -10 0 -28 3 -39 6 -19 5 -22 1 -26 -48z"/>
<path d="M2260 5785 c0 -60 3 -75 15 -75 12 0 15 15 15 75 0 60 -3 75 -15 75
-12 0 -15 -15 -15 -75z"/>
<path d="M4300 5842 c0 -12 3 -12 15 -2 8 7 15 13 15 15 0 1 -7 2 -15 2 -8 0
-15 -7 -15 -15z"/>
<path d="M5065 5818 c-11 -23 -36 -51 -57 -64 -20 -13 -49 -41 -63 -61 l-25
-38 40 -6 c22 -3 52 -16 66 -30 25 -22 56 -79 53 -96 -1 -5 -1 -36 0 -70 1
-60 2 -63 26 -63 14 0 25 5 25 10 0 6 -4 10 -10 10 -21 0 -32 86 -27 200 3 63
3 145 -1 182 l-7 67 -20 -41z"/>
<path d="M4300 5759 c0 -5 5 -7 10 -4 6 3 10 8 10 11 0 2 -4 4 -10 4 -5 0 -10
-5 -10 -11z"/>
<path d="M4097 5722 c-24 -26 -38 -542 -15 -542 8 0 20 12 27 27 13 29 35 215
46 400 7 105 6 112 -13 122 -27 14 -26 14 -45 -7z"/>
<path d="M4594 5725 c-4 -9 -2 -26 3 -38 9 -21 10 -20 15 11 5 35 -8 54 -18
27z"/>
<path d="M4418 5683 c-2 -5 -2 -63 0 -130 3 -93 7 -123 17 -123 7 0 16 12 19
26 8 31 -3 96 -15 88 -5 -3 -9 13 -9 35 0 26 5 41 13 41 8 0 7 4 -3 10 -12 8
-13 12 -2 19 11 7 10 9 -3 15 -9 3 -13 10 -10 16 3 5 4 10 1 10 -3 0 -6 -3 -8
-7z"/>
<path d="M2260 5485 c0 -60 3 -75 15 -75 12 0 15 15 15 75 0 60 -3 75 -15 75
-12 0 -15 -15 -15 -75z"/>
<path d="M4154 5253 c-12 -43 -48 -103 -60 -103 -8 0 -14 -4 -14 -10 0 -5 5
-10 11 -10 5 0 7 -4 4 -10 -4 -7 3 -7 19 0 14 5 27 7 27 5 4 -16 7 -23 17 -47
15 -37 23 -36 12 2 -5 17 -8 66 -7 110 2 82 0 93 -9 63z"/>
<path d="M2260 5185 c0 -60 3 -75 15 -75 12 0 15 15 15 75 0 60 -3 75 -15 75
-12 0 -15 -15 -15 -75z"/>
<path d="M4117 5105 c-8 -8 -17 -12 -19 -10 -3 3 -5 -2 -5 -10 0 -8 5 -11 11
-7 6 4 15 7 20 7 5 0 10 8 12 18 3 21 0 21 -19 2z"/>
<path d="M5045 4960 c-3 -5 -2 -10 4 -10 5 0 13 5 16 10 3 6 2 10 -4 10 -5 0
-13 -4 -16 -10z"/>
<path d="M2260 4885 c0 -60 3 -75 15 -75 12 0 15 15 15 75 0 60 -3 75 -15 75
-12 0 -15 -15 -15 -75z"/>
<path d="M4020 4900 c0 -5 5 -10 10 -10 6 0 10 5 10 10 0 6 -4 10 -10 10 -5 0
-10 -4 -10 -10z"/>
<path d="M4015 4840 c-3 -5 -1 -10 4 -10 6 0 11 5 11 10 0 6 -2 10 -4 10 -3 0
-8 -4 -11 -10z"/>
<path d="M4840 4820 c0 -5 5 -10 10 -10 6 0 10 5 10 10 0 6 -4 10 -10 10 -5 0
-10 -4 -10 -10z"/>
<path d="M2260 4585 c0 -60 3 -75 15 -75 12 0 15 15 15 75 0 60 -3 75 -15 75
-12 0 -15 -15 -15 -75z"/>
<path d="M4982 4648 c-16 -16 -15 -28 1 -28 7 0 13 9 13 20 0 11 -1 20 -1 20
-1 0 -6 -5 -13 -12z"/>
<path d="M4190 4630 c0 -5 5 -10 10 -10 6 0 10 5 10 10 0 6 -4 10 -10 10 -5 0
-10 -4 -10 -10z"/>
<path d="M5282 4580 c0 -14 2 -19 5 -12 2 6 2 18 0 25 -3 6 -5 1 -5 -13z"/>
<path d="M4940 4539 c0 -17 4 -28 10 -24 6 3 10 17 10 31 0 13 -4 24 -10 24
-5 0 -10 -14 -10 -31z"/>
<path d="M5220 4484 c0 -8 5 -12 10 -9 6 3 10 10 10 16 0 5 -4 9 -10 9 -5 0
-10 -7 -10 -16z"/>
<path d="M4422 4450 c0 -14 2 -19 5 -12 2 6 2 18 0 25 -3 6 -5 1 -5 -13z"/>
<path d="M2260 4285 c0 -60 3 -75 15 -75 12 0 15 15 15 75 0 60 -3 75 -15 75
-12 0 -15 -15 -15 -75z"/>
<path d="M4935 4163 l-18 -28 27 24 c28 26 31 31 17 31 -5 0 -17 -12 -26 -27z"/>
<path d="M4930 4130 c-11 -7 -7 -10 18 -10 17 0 32 5 32 10 0 13 -30 13 -50 0z"/>
<path d="M2260 3985 c0 -60 3 -75 15 -75 12 0 15 15 15 75 0 60 -3 75 -15 75
-12 0 -15 -15 -15 -75z"/>
<path d="M2260 3685 c0 -60 3 -75 15 -75 12 0 15 15 15 75 0 60 -3 75 -15 75
-12 0 -15 -15 -15 -75z"/>
<path d="M2260 3385 c0 -60 3 -75 15 -75 12 0 15 15 15 75 0 60 -3 75 -15 75
-12 0 -15 -15 -15 -75z"/>
<path d="M2260 3085 c0 -60 3 -75 15 -75 12 0 15 15 15 75 0 60 -3 75 -15 75
-12 0 -15 -15 -15 -75z"/>
<path d="M2260 2785 c0 -60 3 -75 15 -75 12 0 15 15 15 75 0 60 -3 75 -15 75
-12 0 -15 -15 -15 -75z"/>
<path d="M2260 2485 c0 -60 3 -75 15 -75 12 0 15 15 15 75 0 60 -3 75 -15 75
-12 0 -15 -15 -15 -75z"/>
<path d="M2260 2185 c0 -60 3 -75 15 -75 12 0 15 15 15 75 0 60 -3 75 -15 75
-12 0 -15 -15 -15 -75z"/>
<path d="M2260 1885 c0 -60 3 -75 15 -75 12 0 15 15 15 75 0 60 -3 75 -15 75
-12 0 -15 -15 -15 -75z"/>
<path d="M2260 1585 c0 -60 3 -75 15 -75 12 0 15 15 15 75 0 60 -3 75 -15 75
-12 0 -15 -15 -15 -75z"/>
<path d="M2260 1285 c0 -60 3 -75 15 -75 12 0 15 15 15 75 0 60 -3 75 -15 75
-12 0 -15 -15 -15 -75z"/>
<path d="M2260 985 c0 -60 3 -75 15 -75 12 0 15 15 15 75 0 60 -3 75 -15 75
-12 0 -15 -15 -15 -75z"/>
<path d="M2515 900 c3 -5 11 -10 16 -10 6 0 7 5 4 10 -3 6 -11 10 -16 10 -6 0
-7 -4 -4 -10z"/>
<path d="M2261 700 c1 -32 6 -57 10 -54 4 2 10 -4 12 -13 3 -10 5 15 6 55 1
59 -2 72 -15 72 -12 0 -15 -11 -13 -60z"/>
<path d="M4213 590 c-12 -5 -29 -20 -38 -34 -9 -13 -30 -29 -46 -35 -30 -10
-34 -17 -20 -39 6 -10 15 -9 44 8 36 22 63 19 53 -5 -3 -8 9 -15 36 -19 22 -4
41 -5 42 -4 17 34 36 82 36 94 0 8 -16 22 -35 30 -39 16 -42 16 -72 4z m74
-26 c7 -18 -3 -29 -37 -39 -17 -4 -21 -3 -12 3 8 5 13 12 13 16 -5 37 23 53
36 20z m-9 -66 c-3 -7 -13 -13 -23 -13 -10 0 -20 6 -22 13 -3 7 5 12 22 12 17
0 25 -5 23 -12z"/>
<path d="M4204 429 c-3 -6 -17 -9 -30 -6 -13 2 -24 1 -24 -4 0 -14 39 -20 60
-9 11 6 30 8 40 5 12 -4 20 -2 20 4 0 6 -3 11 -7 12 -5 0 -18 2 -30 5 -12 2
-25 -1 -29 -7z"/>
</g>
</svg>
